<?xml version="1.0" encoding="utf-8"?>
<!-- Generator: Adobe Illustrator 26.0.1, SVG Export Plug-In . SVG Version: 6.00 Build 0)  -->
<svg version="1.1" id="Layer_1" xmlns="http://www.w3.org/2000/svg" xmlns:xlink="http://www.w3.org/1999/xlink" x="0px" y="0px"
	 viewBox="0 0 1920 1080" style="enable-background:new 0 0 1920 1080;" xml:space="preserve">
<style type="text/css">
	.st0{fill:none;}
	.st1{fill:#FBAE17;}
	.st2{fill:#005AA9;}
	.st3{fill:#00A551;}
	.st4{fill:url(#SVGID_1_);}
</style>
<pattern  width="527.4" height="576.6" patternUnits="userSpaceOnUse" id="New_Pattern_2" viewBox="31.9 -596.2 527.4 576.6" style="overflow:visible;">
	<g>
		<rect x="31.9" y="-596.2" class="st0" width="527.4" height="576.6"/>
		<g>
			<path class="st1" d="M433.5-47c1.6,1.6,1.6,4.1,0,5.7L418-25.8c-1.6,1.6-4.1,1.6-5.7,0l-15.6-15.5c-1.6-1.6-1.6-4.1,0-5.7
				l15.6-15.6c1.6-1.6,4.1-1.6,5.7,0L433.5-47z"/>
			<path class="st2" d="M458.1-22.4c1.6,1.6,1.6,4.1,0,5.7L442.6-1.2c-1.6,1.6-4.1,1.6-5.7,0l-15.6-15.5c-1.6-1.6-1.6-4.1,0-5.7
				L436.9-38c1.6-1.6,4.1-1.6,5.7,0L458.1-22.4z"/>
		</g>
		<g>
			<path class="st1" d="M169.8-47c1.6,1.6,1.6,4.1,0,5.7l-15.6,15.5c-1.6,1.6-4.1,1.6-5.7,0L133-41.3c-1.6-1.6-1.6-4.1,0-5.7
				l15.6-15.6c1.6-1.6,4.1-1.6,5.7,0L169.8-47z"/>
			<path class="st2" d="M194.4-22.4c1.6,1.6,1.6,4.1,0,5.7L178.9-1.2c-1.6,1.6-4.1,1.6-5.7,0l-15.6-15.5c-1.6-1.6-1.6-4.1,0-5.7
				L173.2-38c1.6-1.6,4.1-1.6,5.7,0L194.4-22.4z"/>
		</g>
		<g>
			<path class="st1" d="M565.4-335.3c1.6,1.6,1.6,4.1,0,5.7l-15.6,15.5c-1.6,1.6-4.1,1.6-5.7,0l-15.6-15.5c-1.6-1.6-1.6-4.1,0-5.7
				l15.6-15.6c1.6-1.6,4.1-1.6,5.7,0L565.4-335.3z"/>
			<path class="st2" d="M590-310.7c1.6,1.6,1.6,4.1,0,5.7l-15.5,15.5c-1.6,1.6-4.1,1.6-5.7,0L553.2-305c-1.6-1.6-1.6-4.1,0-5.7
				l15.6-15.6c1.6-1.6,4.1-1.6,5.7,0L590-310.7z"/>
			<path class="st3" d="M544.2-301.7c1.6-1.6,4.1-1.6,5.7,0l15.6,15.6c1.6,1.6,1.6,4.1,0,5.7l-15.6,15.5c-1.6,1.6-4.1,1.6-5.7,0
				l-15.6-15.5c-1.6-1.6-1.6-4.1,0-5.7L544.2-301.7z"/>
		</g>
		<g>
			<path class="st1" d="M301.7-335.3c1.6,1.6,1.6,4.1,0,5.7l-15.6,15.5c-1.6,1.6-4.1,1.6-5.7,0l-15.6-15.5c-1.6-1.6-1.6-4.1,0-5.7
				l15.6-15.6c1.6-1.6,4.1-1.6,5.7,0L301.7-335.3z"/>
			<path class="st2" d="M326.3-310.7c1.6,1.6,1.6,4.1,0,5.7l-15.5,15.5c-1.6,1.6-4.1,1.6-5.7,0L289.5-305c-1.6-1.6-1.6-4.1,0-5.7
				l15.6-15.6c1.6-1.6,4.1-1.6,5.7,0L326.3-310.7z"/>
			<path class="st3" d="M280.4-301.7c1.6-1.6,4.1-1.6,5.7,0l15.6,15.6c1.6,1.6,1.6,4.1,0,5.7l-15.6,15.5c-1.6,1.6-4.1,1.6-5.7,0
				l-15.6-15.5c-1.6-1.6-1.6-4.1,0-5.7L280.4-301.7z"/>
		</g>
		<g>
			<path class="st1" d="M38-335.3c1.6,1.6,1.6,4.1,0,5.7l-15.6,15.5c-1.6,1.6-4.1,1.6-5.7,0L1.2-329.6c-1.6-1.6-1.6-4.1,0-5.7
				l15.6-15.6c1.6-1.6,4.1-1.6,5.7,0L38-335.3z"/>
			<path class="st2" d="M62.5-310.7c1.6,1.6,1.6,4.1,0,5.7L47-289.5c-1.6,1.6-4.1,1.6-5.7,0L25.8-305c-1.6-1.6-1.6-4.1,0-5.7
				l15.6-15.6c1.6-1.6,4.1-1.6,5.7,0L62.5-310.7z"/>
			<path class="st3" d="M16.7-301.7c1.6-1.6,4.1-1.6,5.7,0L38-286.1c1.6,1.6,1.6,4.1,0,5.7l-15.6,15.5c-1.6,1.6-4.1,1.6-5.7,0
				L1.2-280.4c-1.6-1.6-1.6-4.1,0-5.7L16.7-301.7z"/>
		</g>
		<g>
			<path class="st2" d="M458.1-599c1.6,1.6,1.6,4.1,0,5.7l-15.5,15.5c-1.6,1.6-4.1,1.6-5.7,0l-15.6-15.5c-1.6-1.6-1.6-4.1,0-5.7
				l15.6-15.6c1.6-1.6,4.1-1.6,5.7,0L458.1-599z"/>
			<path class="st3" d="M412.3-590c1.6-1.6,4.1-1.6,5.7,0l15.6,15.6c1.6,1.6,1.6,4.1,0,5.7L418-553.2c-1.6,1.6-4.1,1.6-5.7,0
				l-15.6-15.5c-1.6-1.6-1.6-4.1,0-5.7L412.3-590z"/>
		</g>
		<g>
			<path class="st2" d="M194.4-599c1.6,1.6,1.6,4.1,0,5.7l-15.5,15.5c-1.6,1.6-4.1,1.6-5.7,0l-15.6-15.5c-1.6-1.6-1.6-4.1,0-5.7
				l15.6-15.6c1.6-1.6,4.1-1.6,5.7,0L194.4-599z"/>
			<path class="st3" d="M148.6-590c1.6-1.6,4.1-1.6,5.7,0l15.6,15.6c1.6,1.6,1.6,4.1,0,5.7l-15.6,15.5c-1.6,1.6-4.1,1.6-5.7,0
				L133-568.7c-1.6-1.6-1.6-4.1,0-5.7L148.6-590z"/>
		</g>
	</g>
</pattern>
<pattern  id="SVGID_1_" xlink:href="#New_Pattern_2" patternTransform="matrix(1 0 0 1 -278.3165 -192.1474)">
</pattern>
<rect class="st4" width="1920" height="1080"/>
</svg>
