<?xml version="1.0" encoding="utf-8"?>
<!-- Generator: Adobe Illustrator 26.0.1, SVG Export Plug-In . SVG Version: 6.00 Build 0)  -->
<svg version="1.1" id="Layer_1" xmlns="http://www.w3.org/2000/svg" xmlns:xlink="http://www.w3.org/1999/xlink" x="0px" y="0px"
	 viewBox="0 0 360.4 56" style="enable-background:new 0 0 360.4 56;" xml:space="preserve">
<style type="text/css">
	.st0{fill:#FCAF17;}
	.st1{fill:#005BAA;}
	.st2{fill:#00A651;}
</style>
<g>
	<g>
		<path class="st0" d="M342.6,10.6c1,1,1,2.6,0,3.6l-9.9,9.9c-1,1-2.6,1-3.6,0l-9.9-9.9c-1-1-1-2.6,0-3.6l9.9-9.9c1-1,2.6-1,3.6,0
			L342.6,10.6z"/>
	</g>
	<g>
		<path class="st1" d="M358.2,26.2c1,1,1,2.6,0,3.6l-9.9,9.9c-1,1-2.6,1-3.6,0l-9.9-9.9c-1-1-1-2.6,0-3.6l9.9-9.9c1-1,2.6-1,3.6,0
			L358.2,26.2z"/>
	</g>
	<g>
		<path class="st2" d="M329.1,31.9c1-1,2.6-1,3.6,0l9.9,9.9c1,1,1,2.6,0,3.6l-9.9,9.8c-1,1-2.6,1-3.6,0l-9.9-9.8c-1-1-1-2.6,0-3.6
			L329.1,31.9z"/>
	</g>
	<g>
		<g>
			<path class="st1" d="M0,12.4h19.8l0.5,8.4h-1.1c-0.4-2.7-1.2-4.5-2.1-5.6c-1-1.1-2.2-1.6-3.8-1.6H8.3c-0.4,0-0.7,0.1-0.9,0.3
				c-0.2,0.2-0.3,0.5-0.3,1v8.9h2.1c1.1,0,2.1-0.4,2.8-1.2c0.7-0.8,1.1-2.1,1.2-3.8h1.2v11.6h-1.2c-0.1-1.9-0.4-3.3-1.2-4.1
				c-0.7-0.8-1.7-1.2-3-1.2h-2V35c0,0.4,0.1,0.6,0.4,0.8c0.2,0.2,0.6,0.3,1.2,0.3h3.9c4.2,0,6.6-2.7,7.3-8.1H21l-0.4,9.3H0v-1.3h1.7
				c0.7,0,1.1-0.1,1.4-0.3c0.3-0.2,0.4-0.6,0.4-1V15c0-0.4-0.1-0.8-0.4-1c-0.2-0.2-0.6-0.3-1.1-0.3H0V12.4z"/>
		</g>
		<g>
			<path class="st1" d="M24.4,12.4h13c2.6,0,4.5,0.6,5.9,1.7c1.4,1.1,2,2.5,2,4.2c0,1.4-0.5,2.6-1.4,3.6c-0.9,1-2.4,1.8-4.3,2.4
				c2.4,0.5,4.1,1.3,5.3,2.3c1.2,1.1,1.8,2.4,1.8,4c0,1.2-0.3,2.3-1,3.3c-0.7,1-1.8,1.8-3.3,2.4c-1.6,0.7-3.3,1-5.3,1H24.4v-1.3h2.1
				c0.6,0,1.1-0.1,1.4-0.3c0.3-0.2,0.4-0.4,0.4-0.7v-20c0-0.5-0.1-0.8-0.4-1.1c-0.3-0.2-0.7-0.4-1.2-0.4h-2.2V12.4z M31.9,23.9h4.7
				c1.5,0,2.6-0.4,3.5-1.3c0.9-0.9,1.3-2.3,1.3-4.2c0-1.2-0.2-2.1-0.6-2.8c-0.4-0.7-1-1.2-1.8-1.5c-0.8-0.3-2.1-0.5-4.1-0.5
				c-1.4,0-2.2,0.1-2.5,0.3c-0.3,0.2-0.5,0.5-0.5,1V23.9z M31.9,25.2v9.6c0,0.4,0.1,0.8,0.4,1c0.3,0.2,0.7,0.3,1.4,0.3h3
				c2,0,3.5-0.4,4.4-1.3c1-0.9,1.4-2.3,1.4-4.1c0-1.7-0.5-3.1-1.5-4.1c-1-1-2.4-1.5-4.1-1.5H31.9z"/>
		</g>
		<g>
			<path class="st1" d="M48.9,12.4h11.6v1.3h-2.8c-0.4,0-0.8,0.1-1,0.3c-0.2,0.2-0.3,0.6-0.3,1.1v19.7c0,0.5,0.1,0.8,0.4,1
				c0.3,0.2,0.8,0.3,1.6,0.3h3.5c1.9,0,3.4-0.6,4.6-1.9c1.2-1.2,2-3.4,2.6-6.5h1.2l-0.6,9.6H48.9v-1.3h2c0.7,0,1.2-0.1,1.5-0.4
				c0.3-0.3,0.4-0.7,0.4-1.3V15c0-0.4-0.1-0.7-0.4-0.9c-0.2-0.2-0.6-0.3-1.1-0.3h-2.5V12.4z"/>
		</g>
		<g>
			<path class="st1" d="M96.5,14.3l1.5-2.2h1.2l0.1,9.1h-1.1c-0.7-2.8-1.7-4.8-3.1-6.1c-1.4-1.3-2.9-1.9-4.7-1.9
				c-1.5,0-2.7,0.4-3.7,1.3c-1,0.9-1.4,2-1.4,3.3c0,0.8,0.2,1.5,0.5,2.1c0.4,0.6,0.9,1.1,1.6,1.5c0.7,0.4,2.1,0.8,4,1.2
				c2.8,0.6,4.7,1.2,5.9,1.8c1.1,0.6,2,1.4,2.5,2.3c0.6,0.9,0.8,2,0.8,3.3c0,2.3-0.8,4.1-2.3,5.6c-1.5,1.5-3.5,2.2-5.9,2.2
				c-2.6,0-4.8-0.8-6.7-2.5L84,37.7h-1.2V28H84c0.5,2.7,1.5,4.8,3.2,6.3c1.6,1.5,3.5,2.3,5.6,2.3c1.7,0,3-0.5,4.1-1.5
				c1.1-1,1.6-2.2,1.6-3.6c0-0.8-0.2-1.5-0.6-2.1c-0.4-0.6-1-1.1-1.9-1.5c-0.9-0.4-2.5-0.9-5.1-1.5c-2.8-0.7-4.6-1.4-5.6-2.2
				c-1.4-1.1-2.1-2.8-2.1-4.9c0-2.2,0.7-4,2.1-5.4c1.4-1.4,3.2-2.1,5.4-2.1c1.1,0,2,0.2,3,0.6C94.5,12.8,95.5,13.4,96.5,14.3z"/>
		</g>
		<g>
			<path class="st1" d="M118.3,29.6H107c0.1,2.4,0.5,4.1,1.4,5.1c1,1.1,2.2,1.7,3.7,1.7c2.2,0,4-1.3,5.3-3.8l1.1,0.5
				c-1.6,3.2-4,4.8-7.1,4.8c-2.1,0-3.9-0.8-5.4-2.3c-1.5-1.5-2.2-3.5-2.2-5.9c0-2.6,0.7-4.6,2.1-6.2c1.4-1.6,3.2-2.4,5.3-2.4
				c1.5,0,2.9,0.4,4,1.2c1.1,0.8,2,1.9,2.5,3.4C118.1,26.7,118.3,28,118.3,29.6z M107,28.4h6.9c0.4,0,0.7-0.1,0.9-0.4
				c0.2-0.3,0.3-0.8,0.3-1.4c0-1.2-0.4-2.3-1.2-3.2c-0.8-0.9-1.7-1.3-2.7-1.3c-1.2,0-2.2,0.5-3,1.6C107.4,24.7,107,26.3,107,28.4z"
				/>
		</g>
		<g>
			<path class="st1" d="M132.9,32.7l1.1,0.3c-0.9,3.2-2.8,4.9-5.8,4.9c-2.2,0-4-0.7-5.4-2.2c-1.4-1.5-2.1-3.4-2.1-5.8
				c0-2.8,0.8-5,2.3-6.5c1.5-1.5,3.3-2.3,5.4-2.3c1.6,0,2.8,0.4,3.9,1.3c1,0.9,1.5,1.8,1.5,2.9c0,0.6-0.2,1.2-0.6,1.6
				c-0.4,0.4-0.8,0.6-1.3,0.6c-0.5,0-0.9-0.2-1.3-0.5c-0.4-0.3-0.5-0.8-0.5-1.3c0-0.5,0.2-1,0.6-1.4c0.2-0.2,0.3-0.4,0.3-0.5
				c0-0.3-0.2-0.6-0.7-1c-0.4-0.3-1-0.5-1.8-0.5c-1.4,0-2.4,0.5-3.1,1.5c-1,1.5-1.5,3.4-1.5,5.7c0,2.3,0.5,4,1.4,5.1
				c0.9,1.2,2.1,1.7,3.4,1.7C130.5,36.5,132,35.2,132.9,32.7z"/>
		</g>
		<g>
			<path class="st1" d="M141.6,21.3v10.5c0,1.3,0.3,2.3,1,3c0.6,0.7,1.5,1.1,2.5,1.1c1.3,0,2.3-0.5,3.2-1.5c0.9-1,1.3-2.3,1.3-3.8
				v-5.9c0-0.5-0.2-1-0.6-1.3c-0.4-0.3-1.1-0.5-2.2-0.5v-1.2l5.6-0.3v13c0,0.6,0.2,1.1,0.5,1.4c0.3,0.3,0.8,0.5,1.4,0.5h1v1.1
				l-5.3,0.1l-0.3-3.1c-0.9,1.1-1.9,2-2.9,2.5c-1,0.6-1.9,0.8-2.9,0.8c-1.4,0-2.6-0.5-3.6-1.4c-1-0.9-1.5-2.6-1.5-4.8v-6.9
				c0-0.6-0.2-1.1-0.7-1.4c-0.3-0.2-1-0.4-2.1-0.4v-1.2L141.6,21.3z"/>
		</g>
		<g>
			<path class="st1" d="M157.1,21.6l5.7-0.3v6.4c0.6-2.1,1.3-3.7,2.2-4.8c0.9-1.1,1.9-1.6,3.2-1.6c0.9,0,1.5,0.3,2.1,0.8
				c0.5,0.5,0.8,1.2,0.8,2.1c0,0.7-0.2,1.3-0.5,1.7c-0.3,0.4-0.8,0.6-1.3,0.6c-0.5,0-0.9-0.2-1.2-0.5c-0.3-0.3-0.5-0.8-0.5-1.4
				c0-0.4,0.1-0.7,0.3-1c0.2-0.3,0.3-0.5,0.3-0.5c0-0.2-0.1-0.3-0.3-0.3c-0.5,0-1,0.3-1.6,0.8c-0.8,0.8-1.4,1.8-1.9,3.1
				c-0.7,2.1-1,3.7-1,4.9V35c0,0.4,0.1,0.7,0.4,0.9c0.3,0.2,0.7,0.3,1.4,0.3h2v1.3h-9.8v-1.3h1.6c0.5,0,0.9-0.1,1.2-0.3
				c0.3-0.2,0.4-0.5,0.4-0.8V25c0-0.8-0.2-1.3-0.5-1.7c-0.3-0.4-0.8-0.5-1.4-0.5h-1.4V21.6z"/>
		</g>
		<g>
			<path class="st1" d="M172.4,21.6l6.3-0.2V35c0,0.4,0.1,0.6,0.3,0.8c0.3,0.2,0.6,0.3,1,0.3h1.8v1.3h-9v-1.3h1.7
				c0.5,0,0.9-0.1,1.1-0.4c0.2-0.2,0.3-0.6,0.3-1.1v-10c0-0.6-0.2-1.1-0.5-1.4c-0.4-0.3-0.9-0.5-1.6-0.5h-1.3V21.6z M176.8,12.1
				c0.5,0,1,0.2,1.3,0.6c0.4,0.4,0.6,0.8,0.6,1.4c0,0.5-0.2,0.9-0.6,1.3c-0.4,0.4-0.8,0.6-1.3,0.6c-0.5,0-1-0.2-1.3-0.6
				c-0.4-0.4-0.6-0.8-0.6-1.3c0-0.5,0.2-0.9,0.6-1.3C175.8,12.3,176.3,12.1,176.8,12.1z"/>
		</g>
		<g>
			<path class="st1" d="M187.8,15.1h1.1v6.5h5.1v1.6h-5.1v10.2c0,0.9,0.2,1.5,0.6,2c0.4,0.5,1,0.7,1.6,0.7c0.8,0,1.4-0.4,2-1.1
				c0.5-0.7,0.9-1.9,0.9-3.5h1.1c-0.1,2.1-0.5,3.7-1.4,4.7c-0.9,1-2,1.5-3.5,1.5c-1.3,0-2.3-0.4-3.1-1.1c-0.7-0.7-1.1-1.7-1.1-2.8
				V23.1h-2.8V22c1.3-0.2,2.2-0.7,2.9-1.6C187.2,19.1,187.7,17.4,187.8,15.1z"/>
		</g>
		<g>
			<path class="st1" d="M196.8,21.6l6.3-0.2V35c0,0.4,0.1,0.6,0.3,0.8c0.3,0.2,0.6,0.3,1,0.3h1.8v1.3h-9v-1.3h1.7
				c0.5,0,0.9-0.1,1.1-0.4c0.2-0.2,0.3-0.6,0.3-1.1v-10c0-0.6-0.2-1.1-0.5-1.4c-0.4-0.3-0.9-0.5-1.6-0.5h-1.3V21.6z M201.2,12.1
				c0.5,0,1,0.2,1.3,0.6c0.4,0.4,0.6,0.8,0.6,1.4c0,0.5-0.2,0.9-0.6,1.3c-0.4,0.4-0.8,0.6-1.3,0.6c-0.5,0-1-0.2-1.3-0.6
				c-0.4-0.4-0.6-0.8-0.6-1.3c0-0.5,0.2-0.9,0.6-1.3C200.2,12.3,200.7,12.1,201.2,12.1z"/>
		</g>
		<g>
			<path class="st1" d="M222.9,29.6h-11.4c0.1,2.4,0.5,4.1,1.4,5.1c1,1.1,2.2,1.7,3.7,1.7c2.2,0,4-1.3,5.3-3.8l1.1,0.5
				c-1.6,3.2-4,4.8-7.1,4.8c-2.1,0-3.9-0.8-5.4-2.3c-1.4-1.5-2.2-3.5-2.2-5.9c0-2.6,0.7-4.6,2.1-6.2c1.4-1.6,3.2-2.4,5.3-2.4
				c1.5,0,2.9,0.4,4,1.2c1.1,0.8,2,1.9,2.5,3.4C222.6,26.7,222.8,28,222.9,29.6z M211.5,28.4h6.9c0.4,0,0.7-0.1,0.9-0.4
				c0.2-0.3,0.3-0.8,0.3-1.4c0-1.2-0.4-2.3-1.2-3.2c-0.8-0.9-1.7-1.3-2.7-1.3c-1.2,0-2.2,0.5-3,1.6C212,24.7,211.5,26.3,211.5,28.4z
				"/>
		</g>
		<g>
			<path class="st1" d="M227.2,31.5c0.7,2,1.5,3.3,2.4,4.1c0.9,0.7,2,1.1,3.4,1.1c1.2,0,2.2-0.3,2.8-0.8c0.7-0.5,1-1.2,1-2
				c0-0.5-0.1-0.9-0.4-1.2c-0.2-0.4-0.6-0.6-1-0.8c-0.4-0.2-1.5-0.4-3.3-0.8c-1.7-0.3-2.9-0.7-3.6-1.1c-0.7-0.4-1.2-0.9-1.6-1.5
				c-0.4-0.7-0.6-1.4-0.6-2.1c0-1.2,0.4-2.2,1.2-3.2c1-1.2,2.4-1.8,4.2-1.8c1.4,0,2.7,0.4,3.8,1.3l1.1-1.2h0.7l0.4,5.6h-1.1
				c-0.5-1.6-1.2-2.8-2-3.5c-0.8-0.7-1.9-1.1-3.1-1.1c-1.1,0-1.9,0.3-2.5,0.8c-0.6,0.5-0.9,1.2-0.9,1.9c0,0.7,0.3,1.2,0.8,1.7
				c0.6,0.4,1.6,0.8,3.3,1.1c1.9,0.3,3.1,0.6,3.7,0.8c0.9,0.3,1.6,0.9,2.2,1.6c0.5,0.7,0.8,1.6,0.8,2.6c0,1.4-0.6,2.6-1.7,3.5
				c-1.1,1-2.5,1.5-4.2,1.5c-1.6,0-3-0.5-4.4-1.6l-1.2,1.4h-0.9l-0.3-6.3H227.2z"/>
		</g>
		<g>
			<path class="st1" d="M250.9,12.4h11.6v1.3h-2.8c-0.4,0-0.8,0.1-1,0.3c-0.2,0.2-0.3,0.6-0.3,1.1v19.7c0,0.5,0.1,0.8,0.4,1
				c0.3,0.2,0.8,0.3,1.6,0.3h3.5c1.9,0,3.4-0.6,4.6-1.9c1.2-1.2,2-3.4,2.6-6.5h1.2l-0.6,9.6h-20.8v-1.3h2c0.7,0,1.2-0.1,1.5-0.4
				c0.3-0.3,0.4-0.7,0.4-1.3V15c0-0.4-0.1-0.7-0.4-0.9c-0.2-0.2-0.6-0.3-1.1-0.3h-2.5V12.4z"/>
		</g>
		<g>
			<path class="st1" d="M278.3,15.1h1.1v6.5h5.1v1.6h-5.1v10.2c0,0.9,0.2,1.5,0.6,2c0.4,0.5,0.9,0.7,1.6,0.7c0.8,0,1.4-0.4,2-1.1
				c0.5-0.7,0.9-1.9,0.9-3.5h1.1c-0.1,2.1-0.5,3.7-1.4,4.7c-0.9,1-2,1.5-3.5,1.5c-1.3,0-2.3-0.4-3.1-1.1c-0.7-0.7-1.1-1.7-1.1-2.8
				V23.1h-2.8V22c1.3-0.2,2.2-0.7,2.9-1.6C277.7,19.1,278.2,17.4,278.3,15.1z"/>
		</g>
		<g>
			<path class="st1" d="M296.5,12.4l6.2-0.3v21.7c0,0.8,0.2,1.4,0.5,1.8c0.3,0.4,0.8,0.5,1.4,0.5h1.1v1.3h-5.4l-0.4-3.2
				c-0.6,1.2-1.4,2-2.3,2.6c-0.9,0.6-1.8,0.9-2.9,0.9c-1.8,0-3.3-0.8-4.6-2.3c-1.3-1.5-1.9-3.5-1.9-6c0-2.7,0.8-4.8,2.4-6.4
				c1.3-1.3,2.7-1.9,4.4-1.9c1,0,1.9,0.3,2.7,0.8c0.8,0.5,1.5,1.3,2.1,2.3v-9c0-0.5-0.2-0.8-0.6-1.1c-0.4-0.3-0.9-0.4-1.7-0.4h-1.1
				V12.4z M295.6,22.5c-1.2,0-2.2,0.5-2.9,1.5c-0.7,1-1.1,2.7-1.1,5.1c0,2.6,0.4,4.4,1.1,5.5c0.7,1.1,1.7,1.6,2.8,1.6
				c1.2,0,2.3-0.6,3.2-1.8c0.9-1.2,1.3-2.9,1.3-5.2c0-2.1-0.5-3.8-1.4-5.1C297.8,23.1,296.8,22.5,295.6,22.5z"/>
		</g>
		<g>
			<path class="st1" d="M311.1,33.7c0.6,0,1,0.2,1.4,0.6c0.4,0.4,0.6,0.9,0.6,1.5c0,0.6-0.2,1.1-0.6,1.5c-0.4,0.4-0.9,0.6-1.5,0.6
				c-0.6,0-1-0.2-1.4-0.6c-0.4-0.4-0.6-0.9-0.6-1.5c0-0.6,0.2-1.1,0.6-1.5C310.1,33.9,310.6,33.7,311.1,33.7z"/>
		</g>
	</g>
	<g>
		<g>
			<path d="M358.8,23.7l-0.9,0.9l-0.1-0.1l0.9-0.9l-0.3-0.3l0.1-0.1l0.8,0.8l-0.1,0.1L358.8,23.7z"/>
		</g>
		<g>
			<path d="M359.3,26l0.8-0.9l-1.2,0.5l-0.1-0.1l0.5-1.2l-0.9,0.8l-0.1-0.1l1.1-1l0.2,0.2l-0.5,1.2l1.2-0.5l0.2,0.2l-1,1.1L359.3,26
				z"/>
		</g>
	</g>
</g>
</svg>
