<svg xmlns="http://www.w3.org/2000/svg" viewBox="0 0 28.11 22.05"><defs><style>.cls-1{fill:#fec013;}.cls-2{fill:#be922d;}.cls-3{fill:#54823b;}</style></defs><g id="Layer_2" data-name="Layer 2"><g id="Layer_1-2" data-name="Layer 1"><rect class="cls-1" x="0.5" y="0.5" width="27.11" height="21.05" rx="3.56"/><path class="cls-2" d="M24.05,1a3.06,3.06,0,0,1,3.06,3.06V18a3.06,3.06,0,0,1-3.06,3.06h-20A3.06,3.06,0,0,1,1,18V4.06A3.06,3.06,0,0,1,4.06,1h20m0-1h-20A4.06,4.06,0,0,0,0,4.06V18a4.06,4.06,0,0,0,4.06,4.06h20A4.06,4.06,0,0,0,28.11,18V4.06A4.06,4.06,0,0,0,24.05,0Z"/><path class="cls-3" d="M8.06,10.94a4.68,4.68,0,0,1-1.34-.16,2.92,2.92,0,0,1-.82-.36c-.2-.13-.3-.27-.3-.4a.79.79,0,0,1,.12-.38A2.16,2.16,0,0,1,6,9.26c.11-.11.19-.17.26-.17a.19.19,0,0,1,.12,0l.17.09.52.23a2,2,0,0,0,.73.12,1.74,1.74,0,0,0,.45-.06.75.75,0,0,0,.38-.21.65.65,0,0,0,.15-.46.61.61,0,0,0-.24-.5A2.2,2.2,0,0,0,7.92,8c-.25-.1-.5-.21-.76-.34a3,3,0,0,1-.52-.3A2.22,2.22,0,0,1,6.18,7a1.9,1.9,0,0,1-.32-.58,2.69,2.69,0,0,1-.11-.81,1.86,1.86,0,0,1,.37-1.21,2.05,2.05,0,0,1,.93-.68,3.38,3.38,0,0,1,1.18-.22,3.58,3.58,0,0,1,.68.06,2.69,2.69,0,0,1,.56.14,1.35,1.35,0,0,1,.4.2.42.42,0,0,1,.23.34,1.2,1.2,0,0,1-.08.35,1.49,1.49,0,0,1-.23.39.36.36,0,0,1-.26.16.3.3,0,0,1-.14,0L9.15,5a1.31,1.31,0,0,0-.33-.09,2,2,0,0,0-.45,0,1.37,1.37,0,0,0-.61.1.58.58,0,0,0-.29.23.51.51,0,0,0-.07.26.65.65,0,0,0,.16.46A1.26,1.26,0,0,0,8,6.2c.17.08.35.17.56.25l.66.3a3.06,3.06,0,0,1,.61.4,1.65,1.65,0,0,1,.45.61,2,2,0,0,1,.18.89,2.48,2.48,0,0,1-.21,1.08,1.74,1.74,0,0,1-.54.7,2.24,2.24,0,0,1-.77.39A3,3,0,0,1,8.06,10.94Z"/><path class="cls-3" d="M11.94,10.88c-.42,0-.62-.11-.62-.34V3.86c0-.22.2-.33.62-.33h.37c.42,0,.62.11.62.33v2.8H13l1.81-2.94A.38.38,0,0,1,15,3.57a1.51,1.51,0,0,1,.39,0h.49c.39,0,.58.05.58.15a.35.35,0,0,1-.08.22L14.4,7l2.28,3.51a.4.4,0,0,1,.09.22c0,.11-.2.16-.59.16h-.6a2.15,2.15,0,0,1-.4,0,.38.38,0,0,1-.24-.16L13,7.5l-.05,0v3c0,.23-.2.34-.62.34Z"/><path class="cls-3" d="M19.35,10.88c-.41,0-.62-.11-.62-.34V7.35L16.65,4a.61.61,0,0,1-.1-.26c0-.07.05-.12.16-.16a2,2,0,0,1,.5-.05h.45a1.54,1.54,0,0,1,.4,0,.39.39,0,0,1,.23.16L19.56,6l1.29-2.23a.39.39,0,0,1,.23-.16,1.51,1.51,0,0,1,.39,0h.38q.66,0,.66.21a.89.89,0,0,1,0,.11,1.15,1.15,0,0,1-.08.15L20.34,7.38v3.16c0,.23-.21.34-.63.34Z"/><path d="M5.25,19.07c-.18,0-.26-.05-.26-.14V15.07H3.76c-.08,0-.12-.06-.12-.19v-.1c0-.13,0-.19.12-.19h3c.08,0,.13.06.13.19v.1c0,.13,0,.19-.13.19H5.55v3.86c0,.09-.08.14-.25.14Z"/><path d="M7.4,19.07c-.17,0-.26-.05-.26-.14V16.69a2.82,2.82,0,0,0,0-.44c0-.11,0-.2,0-.26a.34.34,0,0,1,0-.11.08.08,0,0,1,0-.07l.1,0,.11,0h.09a.13.13,0,0,1,.12.07.38.38,0,0,1,.06.17,1.16,1.16,0,0,1,0,.18A1.54,1.54,0,0,1,8,15.8a.69.69,0,0,1,.39-.12.49.49,0,0,1,.27.06.21.21,0,0,1,.1.19.93.93,0,0,1,0,.14c0,.05,0,.1,0,.14a.1.1,0,0,1-.07.06.31.31,0,0,1-.13,0,.5.5,0,0,0-.22,0,.54.54,0,0,0-.3.1,1.32,1.32,0,0,0-.29.29v2.34c0,.09-.09.14-.26.14Z"/><path d="M10.18,19.1a1.25,1.25,0,0,1-.78-.24.82.82,0,0,1-.31-.72,1,1,0,0,1,.19-.64,1.15,1.15,0,0,1,.51-.34,2.72,2.72,0,0,1,.68-.15l.74,0v-.3a.54.54,0,0,0-.15-.38.75.75,0,0,0-.55-.16,1.51,1.51,0,0,0-.5.07,1.74,1.74,0,0,0-.34.13.5.5,0,0,1-.16.07s-.06,0-.09-.07a.42.42,0,0,1-.09-.14.24.24,0,0,1,0-.11c0-.06.05-.12.16-.18a1.7,1.7,0,0,1,.44-.16,2.35,2.35,0,0,1,.6-.07,1.76,1.76,0,0,1,.68.12,1,1,0,0,1,.43.34,1,1,0,0,1,.15.54v1.43a2.82,2.82,0,0,0,0,.44c0,.11,0,.2,0,.26a.31.31,0,0,1,0,.11.08.08,0,0,1,0,.07.31.31,0,0,1-.1.05l-.11,0h-.09a.13.13,0,0,1-.12-.07.48.48,0,0,1-.06-.18c0-.07,0-.13-.05-.19a1.31,1.31,0,0,1-.28.24,1.27,1.27,0,0,1-.35.17A1.23,1.23,0,0,1,10.18,19.1Zm0-.47a1.13,1.13,0,0,0,.58-.13,3.25,3.25,0,0,0,.42-.31v-.75h-.52a2.61,2.61,0,0,0-.5.08.72.72,0,0,0-.38.19.5.5,0,0,0-.15.39.53.53,0,0,0,.14.39A.56.56,0,0,0,10.21,18.63Z"/><path d="M13.83,19.1a1,1,0,0,1-.66-.22,1.38,1.38,0,0,1-.43-.61,2.42,2.42,0,0,1-.15-.88A1.94,1.94,0,0,1,13,16.12a1.19,1.19,0,0,1,.94-.44,1.29,1.29,0,0,1,.51.09,1.63,1.63,0,0,1,.4.24V14.4c0-.1.08-.14.25-.14h0c.17,0,.26,0,.26.14v3.71c0,.18,0,.32,0,.44s0,.2,0,.26a.31.31,0,0,1,0,.11.08.08,0,0,1,0,.07.31.31,0,0,1-.1.05l-.11,0h-.09A.13.13,0,0,1,15,19a.48.48,0,0,1-.06-.18c0-.07,0-.13-.05-.19a1.63,1.63,0,0,1-.49.36A1.17,1.17,0,0,1,13.83,19.1Zm.11-.47a1,1,0,0,0,.43-.11,1.5,1.5,0,0,0,.43-.33V16.44a1.29,1.29,0,0,0-.37-.22,1.42,1.42,0,0,0-.42-.07.74.74,0,0,0-.64.31,1.49,1.49,0,0,0-.22.88,1.78,1.78,0,0,0,.21.95A.63.63,0,0,0,13.94,18.63Z"/><path d="M16.72,15.26a.39.39,0,0,1-.22,0s-.07-.06-.07-.1v-.39s0-.07.07-.1a.5.5,0,0,1,.22,0,.48.48,0,0,1,.21,0,.1.1,0,0,1,.07.1v.39s0,.07-.07.1A.37.37,0,0,1,16.72,15.26Zm0,3.81c-.17,0-.25-.05-.25-.14V15.85c0-.1.08-.14.25-.14h0c.17,0,.25,0,.25.14v3.08c0,.09-.08.14-.25.14Z"/><path d="M18.36,19.07c-.17,0-.25-.05-.25-.14V16.69c0-.18,0-.32,0-.44s0-.2,0-.26l0-.11a.08.08,0,0,1,0-.07l.1,0,.12,0h.09a.11.11,0,0,1,.11.07.54.54,0,0,1,.07.17c0,.06,0,.12,0,.18a1.41,1.41,0,0,1,.46-.35,1.19,1.19,0,0,1,.54-.13,1,1,0,0,1,.76.27,1.06,1.06,0,0,1,.28.76v2.22c0,.09-.09.14-.26.14h0c-.16,0-.25-.05-.25-.14V16.77a.62.62,0,0,0-.17-.46.65.65,0,0,0-.48-.16.85.85,0,0,0-.43.12,1.3,1.3,0,0,0-.38.32v2.34c0,.09-.08.14-.25.14Z"/><path d="M22.73,20.41a2.32,2.32,0,0,1-.67-.08.9.9,0,0,1-.46-.26.72.72,0,0,1-.16-.49.84.84,0,0,1,.15-.5,1,1,0,0,1,.4-.31h0a.65.65,0,0,1-.18-.22.71.71,0,0,1-.07-.31.68.68,0,0,1,.09-.35.81.81,0,0,1,.26-.26.93.93,0,0,1-.41-.37,1.08,1.08,0,0,1-.14-.53.94.94,0,0,1,.57-.9,1.6,1.6,0,0,1,.69-.14H23l.18,0h1.16c.08,0,.13.06.13.19V16c0,.12-.05.19-.13.19h-.23l-.26,0v0a.81.81,0,0,1,.17.27,1,1,0,0,1,0,.3,1,1,0,0,1-.14.53,1.07,1.07,0,0,1-.43.38,1.54,1.54,0,0,1-.69.14.82.82,0,0,0-.42.09.32.32,0,0,0-.15.3.31.31,0,0,0,.14.28,1.22,1.22,0,0,0,.38.11l.47.06a2,2,0,0,1,.52.12.84.84,0,0,1,.37.25.69.69,0,0,1,.14.47.83.83,0,0,1-.17.52,1.08,1.08,0,0,1-.51.33A2.8,2.8,0,0,1,22.73,20.41ZM22.8,20a1.59,1.59,0,0,0,.71-.12.39.39,0,0,0,.23-.37.3.3,0,0,0-.15-.28,1.21,1.21,0,0,0-.38-.13L22.74,19a2.36,2.36,0,0,1-.43-.08.7.7,0,0,0-.26.19.49.49,0,0,0-.12.34.43.43,0,0,0,.2.39A1.56,1.56,0,0,0,22.8,20Zm0-2.65a1,1,0,0,0,.53-.13.48.48,0,0,0,.22-.46.51.51,0,0,0-.22-.48,1.09,1.09,0,0,0-.53-.12,1.05,1.05,0,0,0-.52.12.51.51,0,0,0-.22.48.48.48,0,0,0,.22.46A1,1,0,0,0,22.8,17.32Z"/></g></g></svg>