<?xml version="1.0" encoding="utf-8"?>
<!-- Generator: Adobe Illustrator 26.0.1, SVG Export Plug-In . SVG Version: 6.00 Build 0)  -->
<svg version="1.1" id="Layer_1" xmlns="http://www.w3.org/2000/svg" xmlns:xlink="http://www.w3.org/1999/xlink" x="0px" y="0px"
	 viewBox="0 0 1296 311.6" style="enable-background:new 0 0 1296 311.6;" xml:space="preserve">
<style type="text/css">
	.st0{fill:#1F438D;}
	.st1{fill:#F6961E;}
</style>
<g>
	<path class="st0" d="M1291,155.8H20c-2.8,0-5-2.2-5-5l0,0c0-2.8,2.2-5,5-5h1271c2.8,0,5,2.2,5,5l0,0
		C1296,153.6,1293.7,155.8,1291,155.8z"/>
</g>
<g>
	<g>
		<rect x="85.2" y="85" class="st0" width="10" height="70.8"/>
	</g>
	<circle class="st1" cx="90.2" cy="85" r="17.8"/>
	<g>
		<circle class="st0" cx="90.2" cy="85" r="11.4"/>
	</g>
</g>
<g>
	<g>
		<rect x="367.8" y="145.8" class="st0" width="10" height="70.8"/>
	</g>
	<circle class="st1" cx="372.8" cy="216.7" r="17.8"/>
	<g>
		<circle class="st0" cx="372.8" cy="216.7" r="11.4"/>
	</g>
</g>
<g>
	<g>
		<rect x="650.5" y="85" class="st0" width="10" height="70.8"/>
	</g>
	<circle class="st1" cx="655.5" cy="85" r="17.8"/>
	<g>
		<circle class="st0" cx="655.5" cy="85" r="11.4"/>
	</g>
</g>
<g>
	<g>
		<rect x="933.1" y="145.8" class="st0" width="10" height="70.8"/>
	</g>
	<circle class="st1" cx="938.1" cy="216.7" r="17.8"/>
	<g>
		<circle class="st0" cx="938.1" cy="216.7" r="11.4"/>
	</g>
</g>
<g>
	<g>
		<rect x="1215.8" y="85" class="st0" width="10" height="70.8"/>
	</g>
	<circle class="st1" cx="1220.8" cy="85" r="17.8"/>
	<g>
		<circle class="st0" cx="1220.8" cy="85" r="11.4"/>
	</g>
</g>
<g>
	<path class="st0" d="M4.8,19.2h6v2.3H1.9V3.9h2.9V19.2z"/>
	<path class="st0" d="M25.9,15.6H15.2c0.1,1.1,0.5,2,1.2,2.7c0.7,0.7,1.7,1,2.7,1c1.6,0,2.7-0.7,3.3-2h3.1c-0.4,1.3-1.2,2.3-2.3,3.2
		c-1.1,0.8-2.5,1.2-4.1,1.2c-1.3,0-2.5-0.3-3.6-0.9c-1.1-0.6-1.9-1.4-2.5-2.5c-0.6-1.1-0.9-2.4-0.9-3.8c0-1.4,0.3-2.7,0.9-3.8
		s1.4-1.9,2.5-2.5c1.1-0.6,2.3-0.9,3.6-0.9c1.3,0,2.5,0.3,3.5,0.9c1,0.6,1.8,1.4,2.4,2.4c0.6,1,0.9,2.2,0.9,3.6
		C26,14.7,26,15.2,25.9,15.6z M23,13.3c0-1.1-0.4-1.9-1.1-2.6c-0.7-0.6-1.7-1-2.8-1c-1,0-1.9,0.3-2.6,1s-1.1,1.5-1.3,2.6H23z"/>
	<path class="st0" d="M28.8,10.8c0.6-1.1,1.4-1.9,2.4-2.5c1-0.6,2.1-0.9,3.3-0.9c1.1,0,2.1,0.2,2.9,0.6c0.8,0.4,1.5,1,2,1.6v-2h2.9
		v14h-2.9v-2.1c-0.5,0.7-1.2,1.2-2,1.7c-0.8,0.4-1.8,0.7-2.9,0.7c-1.2,0-2.3-0.3-3.3-0.9c-1-0.6-1.8-1.5-2.4-2.6
		c-0.6-1.1-0.9-2.4-0.9-3.8C27.9,13.1,28.2,11.8,28.8,10.8z M38.7,12c-0.4-0.7-0.9-1.3-1.6-1.6c-0.6-0.4-1.3-0.6-2.1-0.6
		S33.6,10,33,10.4c-0.6,0.4-1.2,0.9-1.6,1.6c-0.4,0.7-0.6,1.5-0.6,2.5c0,1,0.2,1.8,0.6,2.5c0.4,0.7,0.9,1.3,1.6,1.7
		c0.7,0.4,1.3,0.6,2.1,0.6c0.7,0,1.4-0.2,2.1-0.6c0.6-0.4,1.2-0.9,1.6-1.6c0.4-0.7,0.6-1.6,0.6-2.5C39.3,13.6,39.1,12.7,38.7,12z"/>
	<path class="st0" d="M46,10.8c0.6-1.1,1.4-1.9,2.4-2.5c1-0.6,2.1-0.9,3.4-0.9c0.9,0,1.8,0.2,2.7,0.6c0.9,0.4,1.6,0.9,2.1,1.6V2.8
		h2.9v18.8h-2.9v-2.1c-0.5,0.7-1.1,1.2-2,1.7s-1.8,0.7-2.9,0.7c-1.2,0-2.3-0.3-3.3-0.9c-1-0.6-1.8-1.5-2.4-2.6
		c-0.6-1.1-0.9-2.4-0.9-3.8C45.1,13.1,45.4,11.8,46,10.8z M55.9,12c-0.4-0.7-0.9-1.3-1.6-1.6C53.7,10,53,9.8,52.3,9.8
		s-1.4,0.2-2.1,0.5c-0.6,0.4-1.2,0.9-1.6,1.6c-0.4,0.7-0.6,1.5-0.6,2.5c0,1,0.2,1.8,0.6,2.5c0.4,0.7,0.9,1.3,1.6,1.7
		c0.7,0.4,1.3,0.6,2.1,0.6c0.7,0,1.4-0.2,2.1-0.6c0.6-0.4,1.2-0.9,1.6-1.6c0.4-0.7,0.6-1.6,0.6-2.5C56.5,13.6,56.3,12.7,55.9,12z"/>
	<path class="st0" d="M63.4,5.2c-0.4-0.4-0.5-0.8-0.5-1.3c0-0.5,0.2-1,0.5-1.3S64.2,2,64.7,2c0.5,0,0.9,0.2,1.3,0.5s0.5,0.8,0.5,1.3
		c0,0.5-0.2,1-0.5,1.3s-0.8,0.5-1.3,0.5C64.2,5.7,63.8,5.5,63.4,5.2z M66.2,7.6v14h-2.9v-14H66.2z"/>
	<path class="st0" d="M80,8c0.9,0.5,1.6,1.1,2,2c0.5,0.9,0.7,2,0.7,3.2v8.3h-2.9v-7.8c0-1.3-0.3-2.2-0.9-2.9c-0.6-0.7-1.5-1-2.6-1
		s-1.9,0.3-2.6,1c-0.6,0.7-1,1.6-1,2.9v7.8H70v-14h2.9v1.6c0.5-0.6,1.1-1,1.8-1.3c0.7-0.3,1.5-0.5,2.3-0.5C78.1,7.3,79.1,7.6,80,8z"
		/>
	<path class="st0" d="M95,8c0.8,0.4,1.5,1,2,1.6v-2h2.9v14.2c0,1.3-0.3,2.4-0.8,3.4c-0.5,1-1.3,1.8-2.3,2.4c-1,0.6-2.2,0.9-3.7,0.9
		c-1.9,0-3.5-0.4-4.7-1.3c-1.3-0.9-2-2.1-2.1-3.6H89c0.2,0.7,0.7,1.3,1.4,1.8c0.7,0.4,1.6,0.7,2.6,0.7c1.2,0,2.1-0.4,2.8-1.1
		c0.7-0.7,1.1-1.7,1.1-3.1v-2.3c-0.5,0.7-1.2,1.2-2,1.7s-1.8,0.7-2.9,0.7c-1.2,0-2.3-0.3-3.3-0.9c-1-0.6-1.8-1.5-2.4-2.6
		c-0.6-1.1-0.9-2.4-0.9-3.8c0-1.4,0.3-2.6,0.9-3.7c0.6-1.1,1.4-1.9,2.4-2.5c1-0.6,2.1-0.9,3.3-0.9C93.2,7.3,94.1,7.5,95,8z M96.3,12
		c-0.4-0.7-0.9-1.3-1.6-1.6c-0.6-0.4-1.3-0.6-2.1-0.6s-1.4,0.2-2.1,0.5c-0.6,0.4-1.2,0.9-1.6,1.6c-0.4,0.7-0.6,1.5-0.6,2.5
		c0,1,0.2,1.8,0.6,2.5c0.4,0.7,0.9,1.3,1.6,1.7c0.7,0.4,1.3,0.6,2.1,0.6c0.7,0,1.4-0.2,2.1-0.6c0.6-0.4,1.2-0.9,1.6-1.6
		c0.4-0.7,0.6-1.6,0.6-2.5C96.9,13.6,96.7,12.7,96.3,12z"/>
	<path class="st0" d="M112.9,21.1c-0.9-0.4-1.7-1-2.2-1.8c-0.5-0.8-0.8-1.7-0.8-2.7h3.1c0.1,0.8,0.4,1.4,0.9,1.9
		c0.5,0.5,1.3,0.7,2.2,0.7c1,0,1.8-0.2,2.3-0.7s0.8-1.1,0.8-1.9c0-0.6-0.2-1.1-0.5-1.4c-0.3-0.4-0.8-0.7-1.3-0.9
		c-0.5-0.2-1.2-0.4-2.1-0.7c-1.2-0.3-2.1-0.6-2.8-0.9c-0.7-0.3-1.3-0.8-1.8-1.5s-0.8-1.5-0.8-2.6c0-1,0.3-1.9,0.8-2.7
		s1.2-1.3,2.1-1.8s2-0.6,3.2-0.6c1.7,0,3.1,0.4,4.2,1.3c1.1,0.9,1.7,2,1.8,3.5h-3.2c-0.1-0.6-0.4-1.2-0.9-1.7s-1.3-0.7-2.2-0.7
		c-0.8,0-1.5,0.2-2,0.6c-0.5,0.4-0.8,1-0.8,1.8c0,0.5,0.2,1,0.5,1.3c0.3,0.3,0.7,0.6,1.3,0.8s1.2,0.4,2.1,0.7c1.2,0.3,2.1,0.6,2.9,1
		c0.7,0.3,1.4,0.8,1.9,1.5c0.5,0.7,0.8,1.6,0.8,2.7c0,0.9-0.2,1.7-0.7,2.5c-0.5,0.8-1.2,1.4-2.1,1.9c-0.9,0.5-2,0.7-3.3,0.7
		C114.9,21.7,113.8,21.5,112.9,21.1z"/>
	<path class="st0" d="M129,9.9v7.7c0,0.5,0.1,0.9,0.4,1.1c0.2,0.2,0.7,0.3,1.3,0.3h1.8v2.4h-2.3c-1.3,0-2.3-0.3-3-0.9
		c-0.7-0.6-1-1.6-1-3V9.9h-1.7V7.6h1.7V4.1h2.9v3.5h3.4v2.4H129z"/>
	<path class="st0" d="M137.5,20.9c-1.1-0.6-1.9-1.4-2.5-2.5s-0.9-2.4-0.9-3.8c0-1.4,0.3-2.7,0.9-3.8c0.6-1.1,1.5-1.9,2.6-2.5
		c1.1-0.6,2.3-0.9,3.6-0.9s2.5,0.3,3.6,0.9c1.1,0.6,1.9,1.4,2.6,2.5c0.6,1.1,0.9,2.4,0.9,3.8c0,1.4-0.3,2.7-1,3.8
		c-0.6,1.1-1.5,2-2.6,2.6c-1.1,0.6-2.3,0.9-3.7,0.9C139.8,21.8,138.6,21.5,137.5,20.9z M143.2,18.7c0.7-0.4,1.2-0.9,1.6-1.6
		s0.6-1.6,0.6-2.6c0-1-0.2-1.9-0.6-2.6c-0.4-0.7-0.9-1.2-1.5-1.6c-0.6-0.4-1.3-0.5-2.1-0.5s-1.4,0.2-2.1,0.5s-1.1,0.9-1.5,1.6
		c-0.4,0.7-0.6,1.6-0.6,2.6c0,1.5,0.4,2.7,1.2,3.5c0.8,0.8,1.7,1.2,2.9,1.2C141.9,19.3,142.6,19.1,143.2,18.7z"/>
	<path class="st0" d="M151.2,10.7c0.6-1.1,1.4-1.9,2.4-2.5c1-0.6,2.2-0.9,3.6-0.9c1.7,0,3.1,0.4,4.2,1.2c1.1,0.8,1.9,2,2.2,3.4h-3.1
		c-0.3-0.7-0.7-1.2-1.2-1.6c-0.6-0.4-1.3-0.6-2.1-0.6c-1.2,0-2.1,0.4-2.8,1.3c-0.7,0.8-1.1,2-1.1,3.5c0,1.5,0.4,2.7,1.1,3.5
		c0.7,0.8,1.6,1.3,2.8,1.3c1.7,0,2.8-0.7,3.3-2.2h3.1c-0.4,1.4-1.2,2.6-2.3,3.4s-2.5,1.3-4.2,1.3c-1.3,0-2.5-0.3-3.6-0.9
		c-1-0.6-1.8-1.4-2.4-2.5s-0.9-2.4-0.9-3.8C150.3,13.1,150.6,11.8,151.2,10.7z"/>
	<path class="st0" d="M172,14.6l6.4,7h-3.9l-5.2-6v6h-2.9V2.8h2.9v10.9l5.1-6.1h4L172,14.6z"/>
	<path class="st0" d="M37.3,44.4c0.7,0.8,1,1.8,1,2.8c0,0.9-0.2,1.7-0.7,2.4c-0.5,0.7-1.1,1.3-2,1.7c-0.9,0.4-1.9,0.6-3.1,0.6h-7.1
		V34.4h6.7c1.2,0,2.2,0.2,3.1,0.6s1.5,1,2,1.6c0.4,0.7,0.7,1.5,0.7,2.3c0,1-0.3,1.9-0.8,2.5c-0.5,0.7-1.3,1.2-2.2,1.5
		C35.9,43.1,36.7,43.6,37.3,44.4z M28.4,41.8h3.6c0.9,0,1.7-0.2,2.2-0.6s0.8-1.1,0.8-1.9c0-0.8-0.3-1.4-0.8-1.9
		c-0.5-0.4-1.3-0.7-2.2-0.7h-3.6V41.8z M34.6,48.9c0.6-0.5,0.8-1.1,0.8-2c0-0.9-0.3-1.5-0.9-2.1c-0.6-0.5-1.4-0.8-2.4-0.8h-3.8v5.5
		h3.9C33.3,49.6,34,49.4,34.6,48.9z"/>
	<path class="st0" d="M46,38.4c0.7-0.4,1.5-0.6,2.5-0.6v3h-0.7c-1.1,0-2,0.3-2.6,0.9c-0.6,0.6-0.9,1.6-0.9,3V52h-2.9V38h2.9v2
		C44.8,39.3,45.3,38.8,46,38.4z"/>
	<path class="st0" d="M53.7,51.3c-1.1-0.6-1.9-1.4-2.5-2.5s-0.9-2.4-0.9-3.8c0-1.4,0.3-2.7,0.9-3.8c0.6-1.1,1.5-1.9,2.6-2.5
		c1.1-0.6,2.3-0.9,3.6-0.9s2.5,0.3,3.6,0.9c1.1,0.6,1.9,1.4,2.6,2.5c0.6,1.1,0.9,2.4,0.9,3.8c0,1.4-0.3,2.7-1,3.8
		c-0.6,1.1-1.5,2-2.6,2.6c-1.1,0.6-2.3,0.9-3.7,0.9C56,52.2,54.8,51.9,53.7,51.3z M59.4,49.2c0.7-0.4,1.2-0.9,1.6-1.6
		s0.6-1.6,0.6-2.6c0-1-0.2-1.9-0.6-2.6c-0.4-0.7-0.9-1.2-1.5-1.6c-0.6-0.4-1.3-0.5-2.1-0.5s-1.4,0.2-2.1,0.5s-1.1,0.9-1.5,1.6
		c-0.4,0.7-0.6,1.6-0.6,2.6c0,1.5,0.4,2.7,1.2,3.5c0.8,0.8,1.7,1.2,2.9,1.2C58,49.7,58.7,49.5,59.4,49.2z"/>
	<path class="st0" d="M72.9,45l6.4,7h-3.9l-5.2-6v6h-2.9V33.2h2.9v10.9l5.1-6.1h4L72.9,45z"/>
	<path class="st0" d="M94.2,46.1H83.5c0.1,1.1,0.5,2,1.2,2.7c0.7,0.7,1.7,1,2.7,1c1.6,0,2.7-0.7,3.3-2h3.1c-0.4,1.3-1.2,2.3-2.3,3.2
		c-1.1,0.8-2.5,1.2-4.1,1.2c-1.3,0-2.5-0.3-3.6-0.9c-1.1-0.6-1.9-1.4-2.5-2.5c-0.6-1.1-0.9-2.4-0.9-3.8c0-1.4,0.3-2.7,0.9-3.8
		s1.4-1.9,2.5-2.5c1.1-0.6,2.3-0.9,3.6-0.9c1.3,0,2.5,0.3,3.5,0.9c1,0.6,1.8,1.4,2.4,2.4c0.6,1,0.9,2.2,0.9,3.6
		C94.3,45.2,94.3,45.7,94.2,46.1z M91.3,43.8c0-1.1-0.4-1.9-1.1-2.6c-0.7-0.6-1.7-1-2.8-1c-1,0-1.9,0.3-2.6,1s-1.1,1.5-1.3,2.6H91.3
		z"/>
	<path class="st0" d="M101.7,38.4c0.7-0.4,1.5-0.6,2.5-0.6v3h-0.7c-1.1,0-2,0.3-2.6,0.9c-0.6,0.6-0.9,1.6-0.9,3V52h-2.9V38h2.9v2
		C100.5,39.3,101,38.8,101.7,38.4z"/>
	<path class="st0" d="M106.8,41.2c0.6-1.1,1.4-1.9,2.4-2.5c1-0.6,2.1-0.9,3.3-0.9c1.1,0,2.1,0.2,2.9,0.6c0.8,0.4,1.5,1,2,1.6v-2h2.9
		v14h-2.9v-2.1c-0.5,0.7-1.2,1.2-2,1.7c-0.8,0.4-1.8,0.7-2.9,0.7c-1.2,0-2.3-0.3-3.3-0.9c-1-0.6-1.8-1.5-2.4-2.6
		c-0.6-1.1-0.9-2.4-0.9-3.8C105.9,43.5,106.2,42.3,106.8,41.2z M116.8,42.5c-0.4-0.7-0.9-1.3-1.6-1.6c-0.6-0.4-1.3-0.6-2.1-0.6
		s-1.4,0.2-2.1,0.5c-0.6,0.4-1.2,0.9-1.6,1.6c-0.4,0.7-0.6,1.5-0.6,2.5c0,1,0.2,1.8,0.6,2.5c0.4,0.7,0.9,1.3,1.6,1.7
		c0.7,0.4,1.3,0.6,2.1,0.6c0.7,0,1.4-0.2,2.1-0.6c0.6-0.4,1.2-0.9,1.6-1.6c0.4-0.7,0.6-1.6,0.6-2.5C117.4,44,117.2,43.2,116.8,42.5z
		"/>
	<path class="st0" d="M132.6,38.4c0.8,0.4,1.5,1,2,1.6v-2h2.9v14.2c0,1.3-0.3,2.4-0.8,3.4c-0.5,1-1.3,1.8-2.3,2.4
		c-1,0.6-2.2,0.9-3.7,0.9c-1.9,0-3.5-0.4-4.7-1.3c-1.3-0.9-2-2.1-2.1-3.6h2.9c0.2,0.7,0.7,1.3,1.4,1.8c0.7,0.4,1.6,0.7,2.6,0.7
		c1.2,0,2.1-0.4,2.8-1.1c0.7-0.7,1.1-1.7,1.1-3.1v-2.3c-0.5,0.7-1.2,1.2-2,1.7s-1.8,0.7-2.9,0.7c-1.2,0-2.3-0.3-3.3-0.9
		c-1-0.6-1.8-1.5-2.4-2.6c-0.6-1.1-0.9-2.4-0.9-3.8c0-1.4,0.3-2.6,0.9-3.7c0.6-1.1,1.4-1.9,2.4-2.5c1-0.6,2.1-0.9,3.3-0.9
		C130.8,37.8,131.8,38,132.6,38.4z M134,42.5c-0.4-0.7-0.9-1.3-1.6-1.6c-0.6-0.4-1.3-0.6-2.1-0.6s-1.4,0.2-2.1,0.5
		c-0.6,0.4-1.2,0.9-1.6,1.6c-0.4,0.7-0.6,1.5-0.6,2.5c0,1,0.2,1.8,0.6,2.5c0.4,0.7,0.9,1.3,1.6,1.7c0.7,0.4,1.3,0.6,2.1,0.6
		c0.7,0,1.4-0.2,2.1-0.6c0.6-0.4,1.2-0.9,1.6-1.6c0.4-0.7,0.6-1.6,0.6-2.5C134.6,44,134.4,43.2,134,42.5z"/>
	<path class="st0" d="M154,46.1h-10.7c0.1,1.1,0.5,2,1.2,2.7c0.7,0.7,1.7,1,2.7,1c1.6,0,2.7-0.7,3.3-2h3.1c-0.4,1.3-1.2,2.3-2.3,3.2
		c-1.1,0.8-2.5,1.2-4.1,1.2c-1.3,0-2.5-0.3-3.6-0.9c-1.1-0.6-1.9-1.4-2.5-2.5c-0.6-1.1-0.9-2.4-0.9-3.8c0-1.4,0.3-2.7,0.9-3.8
		s1.4-1.9,2.5-2.5c1.1-0.6,2.3-0.9,3.6-0.9c1.3,0,2.5,0.3,3.5,0.9c1,0.6,1.8,1.4,2.4,2.4c0.6,1,0.9,2.2,0.9,3.6
		C154.1,45.2,154.1,45.7,154,46.1z M151.1,43.8c0-1.1-0.4-1.9-1.1-2.6c-0.7-0.6-1.7-1-2.8-1c-1,0-1.9,0.3-2.6,1s-1.1,1.5-1.3,2.6
		H151.1z"/>
</g>
<g>
	<path class="st0" d="M323.2,266.3l-4.1-7.1H317v7.1h-2.9v-17.6h6.1c1.4,0,2.5,0.2,3.4,0.7s1.6,1.1,2.1,1.9c0.5,0.8,0.7,1.7,0.7,2.7
		c0,1.2-0.3,2.2-1,3.1c-0.7,0.9-1.7,1.6-3.1,1.9l4.4,7.3H323.2z M317,257h3.2c1.1,0,1.9-0.3,2.5-0.8c0.5-0.5,0.8-1.3,0.8-2.2
		s-0.3-1.6-0.8-2.1c-0.5-0.5-1.4-0.8-2.5-0.8H317V257z"/>
	<path class="st0" d="M342.8,260.4h-10.7c0.1,1.1,0.5,2,1.2,2.7c0.7,0.7,1.7,1,2.7,1c1.6,0,2.7-0.7,3.3-2h3.1
		c-0.4,1.3-1.2,2.3-2.3,3.2c-1.1,0.8-2.5,1.2-4.1,1.2c-1.3,0-2.5-0.3-3.6-0.9c-1.1-0.6-1.9-1.4-2.5-2.5c-0.6-1.1-0.9-2.4-0.9-3.8
		c0-1.4,0.3-2.7,0.9-3.8s1.4-1.9,2.5-2.5c1.1-0.6,2.3-0.9,3.6-0.9c1.3,0,2.5,0.3,3.5,0.9c1,0.6,1.8,1.4,2.4,2.4
		c0.6,1,0.9,2.2,0.9,3.6C342.9,259.5,342.9,260,342.8,260.4z M339.9,258.1c0-1.1-0.4-1.9-1.1-2.6c-0.7-0.6-1.7-1-2.8-1
		c-1,0-1.9,0.3-2.6,1s-1.1,1.5-1.3,2.6H339.9z"/>
	<path class="st0" d="M347.9,266c-0.9-0.4-1.6-0.9-2.1-1.6s-0.8-1.5-0.8-2.3h3c0.1,0.6,0.3,1.1,0.9,1.5c0.5,0.4,1.2,0.6,1.9,0.6
		c0.8,0,1.4-0.2,1.9-0.5c0.4-0.3,0.7-0.7,0.7-1.2c0-0.5-0.2-0.9-0.7-1.2c-0.5-0.3-1.3-0.5-2.4-0.8c-1-0.3-1.9-0.6-2.6-0.8
		c-0.7-0.3-1.2-0.7-1.7-1.2s-0.7-1.3-0.7-2.2c0-0.7,0.2-1.4,0.7-2c0.4-0.6,1.1-1.1,1.9-1.5c0.8-0.4,1.8-0.5,2.8-0.5
		c1.6,0,2.9,0.4,3.8,1.2c1,0.8,1.5,1.9,1.6,3.3h-2.9c-0.1-0.6-0.3-1.1-0.8-1.5s-1.1-0.6-1.9-0.6c-0.8,0-1.3,0.1-1.8,0.4
		s-0.6,0.7-0.6,1.1c0,0.4,0.1,0.7,0.4,0.9c0.3,0.3,0.6,0.5,1,0.6c0.4,0.1,1,0.3,1.7,0.5c1,0.3,1.8,0.5,2.5,0.8
		c0.7,0.3,1.2,0.7,1.7,1.2c0.5,0.5,0.7,1.3,0.7,2.2c0,0.8-0.2,1.5-0.7,2.1c-0.4,0.6-1.1,1.1-1.9,1.5c-0.8,0.4-1.7,0.5-2.8,0.5
		C349.8,266.6,348.8,266.4,347.9,266z"/>
	<path class="st0" d="M372.1,260.4h-10.7c0.1,1.1,0.5,2,1.2,2.7c0.7,0.7,1.7,1,2.7,1c1.6,0,2.7-0.7,3.3-2h3.1
		c-0.4,1.3-1.2,2.3-2.3,3.2c-1.1,0.8-2.5,1.2-4.1,1.2c-1.3,0-2.5-0.3-3.6-0.9c-1.1-0.6-1.9-1.4-2.5-2.5c-0.6-1.1-0.9-2.4-0.9-3.8
		c0-1.4,0.3-2.7,0.9-3.8s1.4-1.9,2.5-2.5c1.1-0.6,2.3-0.9,3.6-0.9c1.3,0,2.5,0.3,3.5,0.9c1,0.6,1.8,1.4,2.4,2.4
		c0.6,1,0.9,2.2,0.9,3.6C372.2,259.5,372.1,260,372.1,260.4z M369.1,258.1c0-1.1-0.4-1.9-1.1-2.6c-0.7-0.6-1.7-1-2.8-1
		c-1,0-1.9,0.3-2.6,1s-1.1,1.5-1.3,2.6H369.1z"/>
	<path class="st0" d="M374.9,255.5c0.6-1.1,1.4-1.9,2.4-2.5c1-0.6,2.1-0.9,3.3-0.9c1.1,0,2.1,0.2,2.9,0.6c0.8,0.4,1.5,1,2,1.6v-2
		h2.9v14h-2.9v-2.1c-0.5,0.7-1.2,1.2-2,1.7c-0.8,0.4-1.8,0.7-2.9,0.7c-1.2,0-2.3-0.3-3.3-0.9c-1-0.6-1.8-1.5-2.4-2.6
		c-0.6-1.1-0.9-2.4-0.9-3.8C374,257.9,374.3,256.6,374.9,255.5z M384.9,256.8c-0.4-0.7-0.9-1.3-1.6-1.6c-0.6-0.4-1.3-0.6-2.1-0.6
		s-1.4,0.2-2.1,0.5c-0.6,0.4-1.2,0.9-1.6,1.6c-0.4,0.7-0.6,1.5-0.6,2.5c0,1,0.2,1.8,0.6,2.5c0.4,0.7,0.9,1.3,1.6,1.7
		c0.7,0.4,1.3,0.6,2.1,0.6c0.7,0,1.4-0.2,2.1-0.6c0.6-0.4,1.2-0.9,1.6-1.6c0.4-0.7,0.6-1.6,0.6-2.5
		C385.5,258.4,385.3,257.5,384.9,256.8z"/>
	<path class="st0" d="M396.8,252.7c0.7-0.4,1.5-0.6,2.5-0.6v3h-0.7c-1.1,0-2,0.3-2.6,0.9s-0.9,1.6-0.9,3v7.4h-2.9v-14h2.9v2
		C395.5,253.7,396.1,253.1,396.8,252.7z"/>
	<path class="st0" d="M401.9,255.5c0.6-1.1,1.4-1.9,2.4-2.5c1-0.6,2.2-0.9,3.6-0.9c1.7,0,3.1,0.4,4.2,1.2c1.1,0.8,1.9,2,2.2,3.4
		h-3.1c-0.3-0.7-0.7-1.2-1.2-1.6s-1.3-0.6-2.1-0.6c-1.2,0-2.1,0.4-2.8,1.3c-0.7,0.8-1.1,2-1.1,3.5c0,1.5,0.4,2.7,1.1,3.5
		c0.7,0.8,1.6,1.3,2.8,1.3c1.7,0,2.8-0.7,3.3-2.2h3.1c-0.4,1.4-1.2,2.6-2.3,3.4s-2.5,1.3-4.2,1.3c-1.3,0-2.5-0.3-3.6-0.9
		c-1-0.6-1.8-1.4-2.4-2.5s-0.9-2.4-0.9-3.8C401,257.9,401.3,256.6,401.9,255.5z"/>
	<path class="st0" d="M427.3,252.8c0.8,0.5,1.5,1.1,2,2s0.7,2,0.7,3.2v8.3h-2.9v-7.8c0-1.3-0.3-2.2-0.9-2.9c-0.6-0.7-1.5-1-2.6-1
		s-1.9,0.3-2.6,1s-1,1.6-1,2.9v7.8h-2.9v-18.8h2.9v6.4c0.5-0.6,1.1-1,1.9-1.4c0.8-0.3,1.6-0.5,2.5-0.5
		C425.5,252.1,426.5,252.3,427.3,252.8z"/>
	<path class="st0" d="M330.5,279.2v2.4h-7.5v5.2h5.8v2.4h-5.8v7.7h-2.9v-17.6H330.5z"/>
	<path class="st0" d="M335.7,296.1c-1.1-0.6-1.9-1.4-2.5-2.5s-0.9-2.4-0.9-3.8c0-1.4,0.3-2.7,0.9-3.8c0.6-1.1,1.5-1.9,2.6-2.5
		c1.1-0.6,2.3-0.9,3.6-0.9s2.5,0.3,3.6,0.9c1.1,0.6,1.9,1.4,2.6,2.5c0.6,1.1,0.9,2.4,0.9,3.8c0,1.4-0.3,2.7-1,3.8
		c-0.6,1.1-1.5,2-2.6,2.6c-1.1,0.6-2.3,0.9-3.7,0.9C338,297,336.8,296.7,335.7,296.1z M341.4,294c0.7-0.4,1.2-0.9,1.6-1.6
		s0.6-1.6,0.6-2.6c0-1-0.2-1.9-0.6-2.6c-0.4-0.7-0.9-1.2-1.5-1.6c-0.6-0.4-1.3-0.5-2.1-0.5s-1.4,0.2-2.1,0.5s-1.1,0.9-1.5,1.6
		c-0.4,0.7-0.6,1.6-0.6,2.6c0,1.5,0.4,2.7,1.2,3.5c0.8,0.8,1.7,1.2,2.9,1.2C340.1,294.5,340.7,294.3,341.4,294z"/>
	<path class="st0" d="M349.3,286c0.6-1.1,1.4-1.9,2.4-2.5c1-0.6,2.2-0.9,3.6-0.9c1.7,0,3.1,0.4,4.2,1.2c1.1,0.8,1.9,2,2.2,3.4h-3.1
		c-0.3-0.7-0.7-1.2-1.2-1.6s-1.3-0.6-2.1-0.6c-1.2,0-2.1,0.4-2.8,1.3c-0.7,0.8-1.1,2-1.1,3.5c0,1.5,0.4,2.7,1.1,3.5
		c0.7,0.8,1.6,1.3,2.8,1.3c1.7,0,2.8-0.7,3.3-2.2h3.1c-0.4,1.4-1.2,2.6-2.3,3.4s-2.5,1.3-4.2,1.3c-1.3,0-2.5-0.3-3.6-0.9
		c-1-0.6-1.8-1.4-2.4-2.5s-0.9-2.4-0.9-3.8C348.5,288.4,348.8,287.1,349.3,286z"/>
	<path class="st0" d="M377.3,282.8v14h-2.9v-1.7c-0.5,0.6-1.1,1-1.8,1.4s-1.5,0.5-2.3,0.5c-1.1,0-2.1-0.2-3-0.7
		c-0.9-0.5-1.6-1.1-2.1-2c-0.5-0.9-0.7-2-0.7-3.2v-8.2h2.9v7.8c0,1.3,0.3,2.2,0.9,2.9c0.6,0.7,1.5,1,2.6,1s1.9-0.3,2.6-1
		c0.6-0.7,1-1.6,1-2.9v-7.8H377.3z"/>
	<path class="st0" d="M383.3,296.4c-0.9-0.4-1.6-0.9-2.1-1.6s-0.8-1.5-0.8-2.3h3c0.1,0.6,0.3,1.1,0.9,1.5c0.5,0.4,1.2,0.6,1.9,0.6
		c0.8,0,1.4-0.2,1.9-0.5c0.4-0.3,0.7-0.7,0.7-1.2c0-0.5-0.2-0.9-0.7-1.2c-0.5-0.3-1.3-0.5-2.4-0.8c-1-0.3-1.9-0.6-2.6-0.8
		c-0.7-0.3-1.2-0.7-1.7-1.2s-0.7-1.3-0.7-2.2c0-0.7,0.2-1.4,0.7-2c0.4-0.6,1.1-1.1,1.9-1.5c0.8-0.4,1.8-0.5,2.8-0.5
		c1.6,0,2.9,0.4,3.8,1.2c1,0.8,1.5,1.9,1.6,3.3h-2.9c-0.1-0.6-0.3-1.1-0.8-1.5s-1.1-0.6-1.9-0.6c-0.8,0-1.3,0.1-1.8,0.4
		s-0.6,0.7-0.6,1.1c0,0.4,0.1,0.7,0.4,0.9c0.3,0.3,0.6,0.5,1,0.6c0.4,0.1,1,0.3,1.7,0.5c1,0.3,1.8,0.5,2.5,0.8
		c0.7,0.3,1.2,0.7,1.7,1.2c0.5,0.5,0.7,1.3,0.7,2.2c0,0.8-0.2,1.5-0.7,2.1c-0.4,0.6-1.1,1.1-1.9,1.5c-0.8,0.4-1.7,0.5-2.8,0.5
		C385.1,297,384.1,296.8,383.3,296.4z"/>
	<path class="st0" d="M407.4,290.9h-10.7c0.1,1.1,0.5,2,1.2,2.7c0.7,0.7,1.7,1,2.7,1c1.6,0,2.7-0.7,3.3-2h3.1
		c-0.4,1.3-1.2,2.3-2.3,3.2c-1.1,0.8-2.5,1.2-4.1,1.2c-1.3,0-2.5-0.3-3.6-0.9c-1.1-0.6-1.9-1.4-2.5-2.5c-0.6-1.1-0.9-2.4-0.9-3.8
		c0-1.4,0.3-2.7,0.9-3.8s1.4-1.9,2.5-2.5c1.1-0.6,2.3-0.9,3.6-0.9c1.3,0,2.5,0.3,3.5,0.9c1,0.6,1.8,1.4,2.4,2.4
		c0.6,1,0.9,2.2,0.9,3.6C407.5,290,407.5,290.5,407.4,290.9z M404.5,288.5c0-1.1-0.4-1.9-1.1-2.6c-0.7-0.6-1.7-1-2.8-1
		c-1,0-1.9,0.3-2.6,1s-1.1,1.5-1.3,2.6H404.5z"/>
	<path class="st0" d="M410.3,286c0.6-1.1,1.4-1.9,2.4-2.5c1-0.6,2.1-0.9,3.4-0.9c0.9,0,1.8,0.2,2.7,0.6s1.6,0.9,2.1,1.6V278h2.9
		v18.8h-2.9v-2.1c-0.5,0.7-1.1,1.2-2,1.7c-0.8,0.4-1.8,0.7-2.9,0.7c-1.2,0-2.3-0.3-3.3-0.9c-1-0.6-1.8-1.5-2.4-2.6
		c-0.6-1.1-0.9-2.4-0.9-3.8C409.4,288.3,409.7,287.1,410.3,286z M420.3,287.3c-0.4-0.7-0.9-1.3-1.6-1.6c-0.6-0.4-1.3-0.6-2.1-0.6
		s-1.4,0.2-2.1,0.5c-0.6,0.4-1.2,0.9-1.6,1.6c-0.4,0.7-0.6,1.5-0.6,2.5c0,1,0.2,1.8,0.6,2.5c0.4,0.7,0.9,1.3,1.6,1.7
		c0.7,0.4,1.3,0.6,2.1,0.6c0.7,0,1.4-0.2,2.1-0.6c0.6-0.4,1.2-0.9,1.6-1.6c0.4-0.7,0.6-1.6,0.6-2.5
		C420.9,288.8,420.7,288,420.3,287.3z"/>
</g>
<g>
	<path class="st0" d="M826.9,252.8c0.8-1.4,1.9-2.4,3.3-3.2c1.4-0.8,2.9-1.2,4.5-1.2c1.9,0,3.6,0.5,5,1.4s2.5,2.2,3.2,3.9h-3.5
		c-0.5-0.9-1.1-1.6-1.9-2.1s-1.8-0.7-2.8-0.7c-1.2,0-2.2,0.3-3.1,0.8c-0.9,0.5-1.6,1.3-2.1,2.3c-0.5,1-0.8,2.1-0.8,3.4
		c0,1.3,0.3,2.4,0.8,3.4c0.5,1,1.2,1.7,2.1,2.3c0.9,0.5,2,0.8,3.1,0.8c1.1,0,2-0.2,2.8-0.7s1.4-1.2,1.9-2.1h3.5
		c-0.7,1.7-1.7,3-3.2,3.9s-3.1,1.4-5,1.4c-1.7,0-3.2-0.4-4.5-1.2c-1.4-0.8-2.5-1.8-3.3-3.2c-0.8-1.4-1.2-2.9-1.2-4.6
		C825.7,255.7,826.1,254.2,826.9,252.8z"/>
	<path class="st0" d="M859,252.3v14h-2.9v-1.7c-0.5,0.6-1.1,1-1.8,1.4s-1.5,0.5-2.3,0.5c-1.1,0-2.1-0.2-3-0.7
		c-0.9-0.5-1.6-1.1-2.1-2c-0.5-0.9-0.7-2-0.7-3.2v-8.2h2.9v7.8c0,1.3,0.3,2.2,0.9,2.9c0.6,0.7,1.5,1,2.6,1s1.9-0.3,2.6-1
		c0.6-0.7,1-1.6,1-2.9v-7.8H859z"/>
	<path class="st0" d="M864.9,266c-0.9-0.4-1.6-0.9-2.1-1.6s-0.8-1.5-0.8-2.3h3c0.1,0.6,0.3,1.1,0.9,1.5c0.5,0.4,1.2,0.6,1.9,0.6
		c0.8,0,1.4-0.2,1.9-0.5c0.4-0.3,0.7-0.7,0.7-1.2c0-0.5-0.2-0.9-0.7-1.2s-1.3-0.5-2.4-0.8c-1-0.3-1.9-0.6-2.6-0.8
		c-0.7-0.3-1.2-0.7-1.7-1.2s-0.7-1.3-0.7-2.2c0-0.7,0.2-1.4,0.7-2c0.4-0.6,1.1-1.1,1.9-1.5c0.8-0.4,1.8-0.5,2.8-0.5
		c1.6,0,2.9,0.4,3.8,1.2s1.5,1.9,1.6,3.3h-2.9c-0.1-0.6-0.3-1.1-0.8-1.5s-1.1-0.6-1.9-0.6c-0.8,0-1.3,0.1-1.8,0.4s-0.6,0.7-0.6,1.1
		c0,0.4,0.1,0.7,0.4,0.9c0.3,0.3,0.6,0.5,1,0.6c0.4,0.1,1,0.3,1.7,0.5c1,0.3,1.8,0.5,2.5,0.8c0.7,0.3,1.2,0.7,1.7,1.2
		c0.5,0.5,0.7,1.3,0.7,2.2c0,0.8-0.2,1.5-0.7,2.1c-0.4,0.6-1.1,1.1-1.9,1.5s-1.7,0.5-2.8,0.5C866.8,266.6,865.8,266.4,864.9,266z"/>
	<path class="st0" d="M879.7,254.7v7.7c0,0.5,0.1,0.9,0.4,1.1s0.7,0.3,1.3,0.3h1.8v2.4h-2.3c-1.3,0-2.3-0.3-3-0.9s-1-1.6-1-3v-7.7
		h-1.7v-2.4h1.7v-3.5h2.9v3.5h3.4v2.4H879.7z"/>
	<path class="st0" d="M888.3,265.7c-1.1-0.6-1.9-1.4-2.5-2.5s-0.9-2.4-0.9-3.8c0-1.4,0.3-2.7,0.9-3.8c0.6-1.1,1.5-1.9,2.6-2.5
		c1.1-0.6,2.3-0.9,3.6-0.9s2.5,0.3,3.6,0.9s1.9,1.4,2.6,2.5s0.9,2.4,0.9,3.8c0,1.4-0.3,2.7-1,3.8c-0.6,1.1-1.5,2-2.6,2.6
		c-1.1,0.6-2.3,0.9-3.7,0.9C890.5,266.6,889.3,266.3,888.3,265.7z M893.9,263.5c0.7-0.4,1.2-0.9,1.6-1.6s0.6-1.6,0.6-2.6
		c0-1-0.2-1.9-0.6-2.6s-0.9-1.2-1.5-1.6s-1.3-0.5-2.1-0.5c-0.7,0-1.4,0.2-2.1,0.5s-1.1,0.9-1.5,1.6c-0.4,0.7-0.6,1.6-0.6,2.6
		c0,1.5,0.4,2.7,1.2,3.5c0.8,0.8,1.7,1.2,2.9,1.2C892.6,264,893.3,263.9,893.9,263.5z"/>
	<path class="st0" d="M921.9,252.8c0.9,0.5,1.6,1.1,2.1,2c0.5,0.9,0.7,2,0.7,3.2v8.3h-2.9v-7.8c0-1.3-0.3-2.2-0.9-2.9s-1.5-1-2.6-1
		s-1.9,0.3-2.6,1s-1,1.6-1,2.9v7.8h-2.9v-7.8c0-1.3-0.3-2.2-0.9-2.9s-1.5-1-2.6-1s-1.9,0.3-2.6,1s-1,1.6-1,2.9v7.8H902v-14h2.9v1.6
		c0.5-0.6,1.1-1,1.8-1.3c0.7-0.3,1.5-0.5,2.3-0.5c1.1,0,2.1,0.2,3,0.7s1.6,1.2,2,2.1c0.4-0.8,1.1-1.5,2-2s1.9-0.7,2.9-0.7
		C920,252.1,921,252.3,921.9,252.8z"/>
	<path class="st0" d="M941.1,260.4h-10.7c0.1,1.1,0.5,2,1.2,2.7c0.7,0.7,1.7,1,2.7,1c1.6,0,2.7-0.7,3.3-2h3.1
		c-0.4,1.3-1.2,2.3-2.3,3.2c-1.1,0.8-2.5,1.2-4.1,1.2c-1.3,0-2.5-0.3-3.6-0.9c-1.1-0.6-1.9-1.4-2.5-2.5s-0.9-2.4-0.9-3.8
		c0-1.4,0.3-2.7,0.9-3.8s1.4-1.9,2.5-2.5s2.3-0.9,3.6-0.9c1.3,0,2.5,0.3,3.5,0.9c1,0.6,1.8,1.4,2.4,2.4c0.6,1,0.9,2.2,0.9,3.6
		C941.2,259.5,941.1,260,941.1,260.4z M938.2,258.1c0-1.1-0.4-1.9-1.1-2.6c-0.7-0.6-1.7-1-2.8-1c-1,0-1.9,0.3-2.6,1
		s-1.1,1.5-1.3,2.6H938.2z"/>
	<path class="st0" d="M948.6,252.7c0.7-0.4,1.5-0.6,2.5-0.6v3h-0.7c-1.1,0-2,0.3-2.6,0.9s-0.9,1.6-0.9,3v7.4H944v-14h2.9v2
		C947.3,253.7,947.9,253.1,948.6,252.7z"/>
	<path class="st0" d="M960.6,252.8c0.8-1.4,1.9-2.4,3.3-3.2s2.9-1.2,4.5-1.2c1.9,0,3.5,0.5,5,1.4c1.5,0.9,2.5,2.2,3.2,3.9h-3.5
		c-0.5-0.9-1.1-1.6-1.9-2.1s-1.8-0.7-2.8-0.7c-1.2,0-2.2,0.3-3.1,0.8s-1.6,1.3-2.1,2.3s-0.8,2.1-0.8,3.4c0,1.3,0.3,2.4,0.8,3.4
		c0.5,1,1.2,1.7,2.1,2.3s2,0.8,3.1,0.8c1.1,0,2-0.2,2.8-0.7s1.4-1.2,1.9-2.1h3.5c-0.7,1.7-1.7,3-3.2,3.9c-1.5,0.9-3.1,1.4-5,1.4
		c-1.7,0-3.2-0.4-4.5-1.2c-1.4-0.8-2.5-1.8-3.3-3.2s-1.2-2.9-1.2-4.6C959.4,255.7,959.8,254.2,960.6,252.8z"/>
	<path class="st0" d="M992.7,260.4H982c0.1,1.1,0.5,2,1.2,2.7c0.7,0.7,1.7,1,2.7,1c1.6,0,2.7-0.7,3.3-2h3.1
		c-0.4,1.3-1.2,2.3-2.3,3.2c-1.1,0.8-2.5,1.2-4.1,1.2c-1.3,0-2.5-0.3-3.6-0.9c-1.1-0.6-1.9-1.4-2.5-2.5s-0.9-2.4-0.9-3.8
		c0-1.4,0.3-2.7,0.9-3.8s1.4-1.9,2.5-2.5s2.3-0.9,3.6-0.9c1.3,0,2.5,0.3,3.5,0.9c1,0.6,1.8,1.4,2.4,2.4c0.6,1,0.9,2.2,0.9,3.6
		C992.8,259.5,992.8,260,992.7,260.4z M989.8,258.1c0-1.1-0.4-1.9-1.1-2.6c-0.7-0.6-1.7-1-2.8-1c-1,0-1.9,0.3-2.6,1
		s-1.1,1.5-1.3,2.6H989.8z"/>
	<path class="st0" d="M1005.7,252.8c0.9,0.5,1.6,1.1,2,2c0.5,0.9,0.7,2,0.7,3.2v8.3h-2.9v-7.8c0-1.3-0.3-2.2-0.9-2.9
		c-0.6-0.7-1.5-1-2.6-1s-1.9,0.3-2.6,1s-1,1.6-1,2.9v7.8h-2.9v-14h2.9v1.6c0.5-0.6,1.1-1,1.8-1.3s1.5-0.5,2.3-0.5
		C1003.8,252.1,1004.8,252.3,1005.7,252.8z"/>
	<path class="st0" d="M1015.5,254.7v7.7c0,0.5,0.1,0.9,0.4,1.1s0.7,0.3,1.3,0.3h1.8v2.4h-2.3c-1.3,0-2.3-0.3-3-0.9s-1-1.6-1-3v-7.7
		h-1.7v-2.4h1.7v-3.5h2.9v3.5h3.4v2.4H1015.5z"/>
	<path class="st0" d="M1026.2,252.7c0.7-0.4,1.5-0.6,2.5-0.6v3h-0.7c-1.1,0-2,0.3-2.6,0.9s-0.9,1.6-0.9,3v7.4h-2.9v-14h2.9v2
		C1024.9,253.7,1025.5,253.1,1026.2,252.7z"/>
	<path class="st0" d="M1031.5,250c-0.4-0.4-0.5-0.8-0.5-1.3s0.2-1,0.5-1.3s0.8-0.5,1.3-0.5c0.5,0,0.9,0.2,1.3,0.5s0.5,0.8,0.5,1.3
		s-0.2,1-0.5,1.3s-0.8,0.5-1.3,0.5C1032.3,250.5,1031.8,250.3,1031.5,250z M1034.2,252.3v14h-2.9v-14H1034.2z"/>
	<path class="st0" d="M1038,255.5c0.6-1.1,1.4-1.9,2.4-2.5c1-0.6,2.2-0.9,3.6-0.9c1.7,0,3.1,0.4,4.2,1.2s1.9,2,2.2,3.4h-3.1
		c-0.3-0.7-0.7-1.2-1.2-1.6s-1.3-0.6-2.1-0.6c-1.2,0-2.1,0.4-2.8,1.3c-0.7,0.8-1.1,2-1.1,3.5c0,1.5,0.4,2.7,1.1,3.5
		c0.7,0.8,1.6,1.3,2.8,1.3c1.7,0,2.8-0.7,3.3-2.2h3.1c-0.4,1.4-1.2,2.6-2.3,3.4s-2.5,1.3-4.2,1.3c-1.3,0-2.5-0.3-3.6-0.9
		c-1-0.6-1.8-1.4-2.4-2.5s-0.9-2.4-0.9-3.8C1037.1,257.9,1037.4,256.6,1038,255.5z"/>
	<path class="st0" d="M889.3,296.4c-0.9-0.4-1.7-1-2.2-1.8c-0.5-0.8-0.8-1.7-0.8-2.7h3.1c0.1,0.8,0.4,1.4,0.9,1.9
		c0.5,0.5,1.3,0.7,2.2,0.7c1,0,1.8-0.2,2.3-0.7s0.8-1.1,0.8-1.9c0-0.6-0.2-1.1-0.5-1.4c-0.3-0.4-0.8-0.7-1.3-0.9
		c-0.5-0.2-1.2-0.4-2.1-0.7c-1.2-0.3-2.1-0.6-2.8-0.9c-0.7-0.3-1.3-0.8-1.8-1.5s-0.8-1.5-0.8-2.6c0-1,0.3-1.9,0.8-2.7
		s1.2-1.3,2.1-1.8s2-0.6,3.2-0.6c1.7,0,3.1,0.4,4.2,1.3s1.7,2,1.8,3.5h-3.2c-0.1-0.6-0.4-1.2-0.9-1.7s-1.3-0.7-2.2-0.7
		c-0.8,0-1.5,0.2-2,0.6c-0.5,0.4-0.8,1-0.8,1.8c0,0.5,0.2,1,0.5,1.3s0.7,0.6,1.3,0.8s1.2,0.4,2.1,0.7c1.2,0.3,2.1,0.6,2.9,1
		s1.4,0.8,1.9,1.5c0.5,0.7,0.8,1.6,0.8,2.7c0,0.9-0.2,1.7-0.7,2.5c-0.5,0.8-1.2,1.4-2.1,1.9s-2,0.7-3.3,0.7
		C891.3,297,890.3,296.8,889.3,296.4z"/>
	<path class="st0" d="M914.8,290.9h-10.7c0.1,1.1,0.5,2,1.2,2.7c0.7,0.7,1.7,1,2.7,1c1.6,0,2.7-0.7,3.3-2h3.1
		c-0.4,1.3-1.2,2.3-2.3,3.2c-1.1,0.8-2.5,1.2-4.1,1.2c-1.3,0-2.5-0.3-3.6-0.9c-1.1-0.6-1.9-1.4-2.5-2.5c-0.6-1.1-0.9-2.4-0.9-3.8
		c0-1.4,0.3-2.7,0.9-3.8s1.4-1.9,2.5-2.5c1.1-0.6,2.3-0.9,3.6-0.9c1.3,0,2.5,0.3,3.5,0.9s1.8,1.4,2.4,2.4s0.9,2.2,0.9,3.6
		C914.9,290,914.8,290.5,914.8,290.9z M911.8,288.5c0-1.1-0.4-1.9-1.1-2.6s-1.7-1-2.8-1c-1,0-1.9,0.3-2.6,1s-1.1,1.5-1.3,2.6H911.8z
		"/>
	<path class="st0" d="M922.3,283.2c0.7-0.4,1.5-0.6,2.5-0.6v3h-0.7c-1.1,0-2,0.3-2.6,0.9s-0.9,1.6-0.9,3v7.4h-2.9v-14h2.9v2
		C921,284.1,921.6,283.6,922.3,283.2z"/>
	<path class="st0" d="M932.9,294.2l4-11.4h3.1l-5.3,14h-3.5l-5.3-14h3.1L932.9,294.2z"/>
	<path class="st0" d="M942.2,280.4c-0.4-0.4-0.5-0.8-0.5-1.3s0.2-1,0.5-1.3s0.8-0.5,1.3-0.5c0.5,0,0.9,0.2,1.3,0.5s0.5,0.8,0.5,1.3
		s-0.2,1-0.5,1.3s-0.8,0.5-1.3,0.5C943,281,942.6,280.8,942.2,280.4z M945,282.8v14h-2.9v-14H945z"/>
	<path class="st0" d="M948.7,286c0.6-1.1,1.4-1.9,2.4-2.5c1-0.6,2.2-0.9,3.6-0.9c1.7,0,3.1,0.4,4.2,1.2s1.9,2,2.2,3.4H958
		c-0.3-0.7-0.7-1.2-1.2-1.6s-1.3-0.6-2.1-0.6c-1.2,0-2.1,0.4-2.8,1.3c-0.7,0.8-1.1,2-1.1,3.5c0,1.5,0.4,2.7,1.1,3.5
		c0.7,0.8,1.6,1.3,2.8,1.3c1.7,0,2.8-0.7,3.3-2.2h3.1c-0.4,1.4-1.2,2.6-2.3,3.4s-2.5,1.3-4.2,1.3c-1.3,0-2.5-0.3-3.6-0.9
		c-1-0.6-1.8-1.4-2.4-2.5s-0.9-2.4-0.9-3.8C947.8,288.4,948.1,287.1,948.7,286z"/>
	<path class="st0" d="M976.7,290.9h-10.7c0.1,1.1,0.5,2,1.2,2.7c0.7,0.7,1.7,1,2.7,1c1.6,0,2.7-0.7,3.3-2h3.1
		c-0.4,1.3-1.2,2.3-2.3,3.2c-1.1,0.8-2.5,1.2-4.1,1.2c-1.3,0-2.5-0.3-3.6-0.9c-1.1-0.6-1.9-1.4-2.5-2.5c-0.6-1.1-0.9-2.4-0.9-3.8
		c0-1.4,0.3-2.7,0.9-3.8s1.4-1.9,2.5-2.5c1.1-0.6,2.3-0.9,3.6-0.9c1.3,0,2.5,0.3,3.5,0.9s1.8,1.4,2.4,2.4s0.9,2.2,0.9,3.6
		C976.8,290,976.8,290.5,976.7,290.9z M973.8,288.5c0-1.1-0.4-1.9-1.1-2.6s-1.7-1-2.8-1c-1,0-1.9,0.3-2.6,1s-1.1,1.5-1.3,2.6H973.8z
		"/>
	<path class="st0" d="M981.8,296.4c-0.9-0.4-1.6-0.9-2.1-1.6s-0.8-1.5-0.8-2.3h3c0.1,0.6,0.3,1.1,0.9,1.5c0.5,0.4,1.2,0.6,1.9,0.6
		c0.8,0,1.4-0.2,1.9-0.5c0.4-0.3,0.7-0.7,0.7-1.2c0-0.5-0.2-0.9-0.7-1.2s-1.3-0.5-2.4-0.8c-1-0.3-1.9-0.6-2.6-0.8
		c-0.7-0.3-1.2-0.7-1.7-1.2s-0.7-1.3-0.7-2.2c0-0.7,0.2-1.4,0.7-2c0.4-0.6,1.1-1.1,1.9-1.5c0.8-0.4,1.8-0.5,2.8-0.5
		c1.6,0,2.9,0.4,3.8,1.2s1.5,1.9,1.6,3.3H987c-0.1-0.6-0.3-1.1-0.8-1.5s-1.1-0.6-1.9-0.6c-0.8,0-1.3,0.1-1.8,0.4s-0.6,0.7-0.6,1.1
		c0,0.4,0.1,0.7,0.4,0.9c0.3,0.3,0.6,0.5,1,0.6c0.4,0.1,1,0.3,1.7,0.5c1,0.3,1.8,0.5,2.5,0.8c0.7,0.3,1.2,0.7,1.7,1.2
		c0.5,0.5,0.7,1.3,0.7,2.2c0,0.8-0.2,1.5-0.7,2.1c-0.4,0.6-1.1,1.1-1.9,1.5s-1.7,0.5-2.8,0.5C983.7,297,982.7,296.8,981.8,296.4z"/>
</g>
<g>
	<path class="st0" d="M588.3,11.7c-0.4,0.8-1.1,1.4-2,1.9c-0.9,0.5-2.1,0.7-3.6,0.7h-3.2v7.2h-2.9V3.9h6.1c1.4,0,2.5,0.2,3.4,0.7
		c0.9,0.5,1.6,1.1,2.1,1.9c0.5,0.8,0.7,1.7,0.7,2.7C588.9,10.1,588.7,10.9,588.3,11.7z M585.2,11.3c0.5-0.5,0.8-1.2,0.8-2.1
		c0-1.9-1.1-2.9-3.3-2.9h-3.2V12h3.2C583.8,12,584.6,11.8,585.2,11.3z"/>
	<path class="st0" d="M596.3,7.9c0.7-0.4,1.5-0.6,2.5-0.6v3h-0.7c-1.1,0-2,0.3-2.6,0.9c-0.6,0.6-0.9,1.6-0.9,3v7.4h-2.9v-14h2.9v2
		C595,8.9,595.6,8.3,596.3,7.9z"/>
	<path class="st0" d="M603.9,20.9c-1.1-0.6-1.9-1.4-2.5-2.5s-0.9-2.4-0.9-3.8c0-1.4,0.3-2.7,0.9-3.8c0.6-1.1,1.5-1.9,2.6-2.5
		c1.1-0.6,2.3-0.9,3.6-0.9s2.5,0.3,3.6,0.9c1.1,0.6,1.9,1.4,2.6,2.5c0.6,1.1,0.9,2.4,0.9,3.8c0,1.4-0.3,2.7-1,3.8
		c-0.6,1.1-1.5,2-2.6,2.6c-1.1,0.6-2.3,0.9-3.7,0.9C606.2,21.8,605,21.5,603.9,20.9z M609.6,18.7c0.7-0.4,1.2-0.9,1.6-1.6
		s0.6-1.6,0.6-2.6c0-1-0.2-1.9-0.6-2.6c-0.4-0.7-0.9-1.2-1.5-1.6c-0.6-0.4-1.3-0.5-2.1-0.5s-1.4,0.2-2.1,0.5s-1.1,0.9-1.5,1.6
		c-0.4,0.7-0.6,1.6-0.6,2.6c0,1.5,0.4,2.7,1.2,3.5c0.8,0.8,1.7,1.2,2.9,1.2C608.3,19.3,609,19.1,609.6,18.7z"/>
	<path class="st0" d="M621,9.9v7.7c0,0.5,0.1,0.9,0.4,1.1c0.2,0.2,0.7,0.3,1.3,0.3h1.8v2.4h-2.3c-1.3,0-2.3-0.3-3-0.9
		c-0.7-0.6-1-1.6-1-3V9.9h-1.7V7.6h1.7V4.1h2.9v3.5h3.4v2.4H621z"/>
	<path class="st0" d="M639.8,15.6h-10.7c0.1,1.1,0.5,2,1.2,2.7c0.7,0.7,1.7,1,2.7,1c1.6,0,2.7-0.7,3.3-2h3.1
		c-0.4,1.3-1.2,2.3-2.3,3.2c-1.1,0.8-2.5,1.2-4.1,1.2c-1.3,0-2.5-0.3-3.6-0.9c-1.1-0.6-1.9-1.4-2.5-2.5c-0.6-1.1-0.9-2.4-0.9-3.8
		c0-1.4,0.3-2.7,0.9-3.8s1.4-1.9,2.5-2.5c1.1-0.6,2.3-0.9,3.6-0.9c1.3,0,2.5,0.3,3.5,0.9c1,0.6,1.8,1.4,2.4,2.4
		c0.6,1,0.9,2.2,0.9,3.6C639.9,14.7,639.9,15.2,639.8,15.6z M636.9,13.3c0-1.1-0.4-1.9-1.1-2.6c-0.7-0.6-1.7-1-2.8-1
		c-1,0-1.9,0.3-2.6,1s-1.1,1.5-1.3,2.6H636.9z"/>
	<path class="st0" d="M642.7,10.7c0.6-1.1,1.4-1.9,2.4-2.5c1-0.6,2.2-0.9,3.6-0.9c1.7,0,3.1,0.4,4.2,1.2c1.1,0.8,1.9,2,2.2,3.4H652
		c-0.3-0.7-0.7-1.2-1.2-1.6c-0.6-0.4-1.3-0.6-2.1-0.6c-1.2,0-2.1,0.4-2.8,1.3c-0.7,0.8-1.1,2-1.1,3.5c0,1.5,0.4,2.7,1.1,3.5
		c0.7,0.8,1.6,1.3,2.8,1.3c1.7,0,2.8-0.7,3.3-2.2h3.1c-0.4,1.4-1.2,2.6-2.3,3.4s-2.5,1.3-4.2,1.3c-1.3,0-2.5-0.3-3.6-0.9
		c-1-0.6-1.8-1.4-2.4-2.5s-0.9-2.4-0.9-3.8C641.8,13.1,642.1,11.8,642.7,10.7z"/>
	<path class="st0" d="M661.4,9.9v7.7c0,0.5,0.1,0.9,0.4,1.1c0.2,0.2,0.7,0.3,1.3,0.3h1.8v2.4h-2.3c-1.3,0-2.3-0.3-3-0.9
		c-0.7-0.6-1-1.6-1-3V9.9h-1.7V7.6h1.7V4.1h2.9v3.5h3.4v2.4H661.4z"/>
	<path class="st0" d="M667.6,5.2c-0.4-0.4-0.5-0.8-0.5-1.3c0-0.5,0.2-1,0.5-1.3s0.8-0.5,1.3-0.5c0.5,0,0.9,0.2,1.3,0.5
		s0.5,0.8,0.5,1.3c0,0.5-0.2,1-0.5,1.3s-0.8,0.5-1.3,0.5C668.4,5.7,668,5.5,667.6,5.2z M670.3,7.6v14h-2.9v-14H670.3z"/>
	<path class="st0" d="M676.6,20.9c-1.1-0.6-1.9-1.4-2.5-2.5s-0.9-2.4-0.9-3.8c0-1.4,0.3-2.7,0.9-3.8c0.6-1.1,1.5-1.9,2.6-2.5
		c1.1-0.6,2.3-0.9,3.6-0.9s2.5,0.3,3.6,0.9c1.1,0.6,1.9,1.4,2.6,2.5c0.6,1.1,0.9,2.4,0.9,3.8c0,1.4-0.3,2.7-1,3.8
		c-0.6,1.1-1.5,2-2.6,2.6c-1.1,0.6-2.3,0.9-3.7,0.9C678.9,21.8,677.7,21.5,676.6,20.9z M682.3,18.7c0.7-0.4,1.2-0.9,1.6-1.6
		s0.6-1.6,0.6-2.6c0-1-0.2-1.9-0.6-2.6c-0.4-0.7-0.9-1.2-1.5-1.6s-1.3-0.5-2.1-0.5c-0.7,0-1.4,0.2-2.1,0.5s-1.1,0.9-1.5,1.6
		c-0.4,0.7-0.6,1.6-0.6,2.6c0,1.5,0.4,2.7,1.2,3.5c0.8,0.8,1.7,1.2,2.9,1.2C681,19.3,681.7,19.1,682.3,18.7z"/>
	<path class="st0" d="M700.4,8c0.9,0.5,1.6,1.1,2,2c0.5,0.9,0.7,2,0.7,3.2v8.3h-2.9v-7.8c0-1.3-0.3-2.2-0.9-2.9
		c-0.6-0.7-1.5-1-2.6-1s-1.9,0.3-2.6,1c-0.6,0.7-1,1.6-1,2.9v7.8h-2.9v-14h2.9v1.6c0.5-0.6,1.1-1,1.8-1.3c0.7-0.3,1.5-0.5,2.3-0.5
		C698.5,7.3,699.5,7.6,700.4,8z"/>
	<path class="st0" d="M715.9,20.9c-1.1-0.6-1.9-1.4-2.5-2.5s-0.9-2.4-0.9-3.8c0-1.4,0.3-2.7,0.9-3.8c0.6-1.1,1.5-1.9,2.6-2.5
		c1.1-0.6,2.3-0.9,3.6-0.9s2.5,0.3,3.6,0.9c1.1,0.6,1.9,1.4,2.6,2.5c0.6,1.1,0.9,2.4,0.9,3.8c0,1.4-0.3,2.7-1,3.8
		c-0.6,1.1-1.5,2-2.6,2.6c-1.1,0.6-2.3,0.9-3.7,0.9C718.2,21.8,717,21.5,715.9,20.9z M721.6,18.7c0.7-0.4,1.2-0.9,1.6-1.6
		s0.6-1.6,0.6-2.6c0-1-0.2-1.9-0.6-2.6c-0.4-0.7-0.9-1.2-1.5-1.6c-0.6-0.4-1.3-0.5-2.1-0.5c-0.7,0-1.4,0.2-2.1,0.5s-1.1,0.9-1.5,1.6
		c-0.4,0.7-0.6,1.6-0.6,2.6c0,1.5,0.4,2.7,1.2,3.5c0.8,0.8,1.7,1.2,2.9,1.2C720.2,19.3,720.9,19.1,721.6,18.7z"/>
	<path class="st0" d="M735.5,9.9h-2.6v11.6H730V9.9h-1.7V7.6h1.7v-1c0-1.6,0.4-2.8,1.3-3.5s2.2-1.1,4-1.1v2.4
		c-0.9,0-1.5,0.2-1.9,0.5s-0.5,0.9-0.5,1.7v1h2.6V9.9z"/>
	<path class="st0" d="M553.5,34.4V52h-2.9V34.4H553.5z"/>
	<path class="st0" d="M567.3,38.5c0.9,0.5,1.6,1.1,2,2c0.5,0.9,0.7,2,0.7,3.2V52h-2.9v-7.8c0-1.3-0.3-2.2-0.9-2.9
		c-0.6-0.7-1.5-1-2.6-1s-1.9,0.3-2.6,1c-0.6,0.7-1,1.6-1,2.9V52h-2.9V38h2.9v1.6c0.5-0.6,1.1-1,1.8-1.3c0.7-0.3,1.5-0.5,2.3-0.5
		C565.5,37.8,566.4,38,567.3,38.5z"/>
	<path class="st0" d="M579.2,49.4l4-11.4h3.1l-5.3,14h-3.5l-5.3-14h3.1L579.2,49.4z"/>
	<path class="st0" d="M601.1,46.1h-10.7c0.1,1.1,0.5,2,1.2,2.7c0.7,0.7,1.7,1,2.7,1c1.6,0,2.7-0.7,3.3-2h3.1
		c-0.4,1.3-1.2,2.3-2.3,3.2c-1.1,0.8-2.5,1.2-4.1,1.2c-1.3,0-2.5-0.3-3.6-0.9c-1.1-0.6-1.9-1.4-2.5-2.5c-0.6-1.1-0.9-2.4-0.9-3.8
		c0-1.4,0.3-2.7,0.9-3.8s1.4-1.9,2.5-2.5c1.1-0.6,2.3-0.9,3.6-0.9c1.3,0,2.5,0.3,3.5,0.9c1,0.6,1.8,1.4,2.4,2.4
		c0.6,1,0.9,2.2,0.9,3.6C601.2,45.2,601.2,45.7,601.1,46.1z M598.2,43.8c0-1.1-0.4-1.9-1.1-2.6c-0.7-0.6-1.7-1-2.8-1
		c-1,0-1.9,0.3-2.6,1s-1.1,1.5-1.3,2.6H598.2z"/>
	<path class="st0" d="M606.2,51.6c-0.9-0.4-1.6-0.9-2.1-1.6s-0.8-1.5-0.8-2.3h3c0.1,0.6,0.3,1.1,0.9,1.5c0.5,0.4,1.2,0.6,1.9,0.6
		c0.8,0,1.4-0.2,1.9-0.5c0.4-0.3,0.7-0.7,0.7-1.2c0-0.5-0.2-0.9-0.7-1.2c-0.5-0.3-1.3-0.5-2.4-0.8c-1-0.3-1.9-0.6-2.6-0.8
		c-0.7-0.3-1.2-0.7-1.7-1.2s-0.7-1.3-0.7-2.2c0-0.7,0.2-1.4,0.7-2c0.4-0.6,1.1-1.1,1.9-1.5c0.8-0.4,1.8-0.5,2.8-0.5
		c1.6,0,2.9,0.4,3.8,1.2c1,0.8,1.5,1.9,1.6,3.3h-2.9c-0.1-0.6-0.3-1.1-0.8-1.5c-0.5-0.4-1.1-0.6-1.9-0.6c-0.8,0-1.3,0.1-1.8,0.4
		c-0.4,0.3-0.6,0.7-0.6,1.1c0,0.4,0.1,0.7,0.4,0.9c0.3,0.3,0.6,0.5,1,0.6c0.4,0.1,1,0.3,1.7,0.5c1,0.3,1.8,0.5,2.5,0.8
		c0.7,0.3,1.2,0.7,1.7,1.2c0.5,0.5,0.7,1.3,0.7,2.2c0,0.8-0.2,1.5-0.7,2.1c-0.4,0.6-1.1,1.1-1.9,1.5c-0.8,0.4-1.7,0.5-2.8,0.5
		C608,52.2,607.1,52,606.2,51.6z"/>
	<path class="st0" d="M621,40.4v7.7c0,0.5,0.1,0.9,0.4,1.1c0.2,0.2,0.7,0.3,1.3,0.3h1.8V52h-2.3c-1.3,0-2.3-0.3-3-0.9
		c-0.7-0.6-1-1.6-1-3v-7.7h-1.7V38h1.7v-3.5h2.9V38h3.4v2.4H621z"/>
	<path class="st0" d="M629.6,51.3c-1.1-0.6-1.9-1.4-2.5-2.5s-0.9-2.4-0.9-3.8c0-1.4,0.3-2.7,0.9-3.8c0.6-1.1,1.5-1.9,2.6-2.5
		c1.1-0.6,2.3-0.9,3.6-0.9s2.5,0.3,3.6,0.9c1.1,0.6,1.9,1.4,2.6,2.5c0.6,1.1,0.9,2.4,0.9,3.8c0,1.4-0.3,2.7-1,3.8
		c-0.6,1.1-1.5,2-2.6,2.6c-1.1,0.6-2.3,0.9-3.7,0.9C631.8,52.2,630.6,51.9,629.6,51.3z M635.2,49.2c0.7-0.4,1.2-0.9,1.6-1.6
		s0.6-1.6,0.6-2.6c0-1-0.2-1.9-0.6-2.6c-0.4-0.7-0.9-1.2-1.5-1.6c-0.6-0.4-1.3-0.5-2.1-0.5s-1.4,0.2-2.1,0.5s-1.1,0.9-1.5,1.6
		c-0.4,0.7-0.6,1.6-0.6,2.6c0,1.5,0.4,2.7,1.2,3.5c0.8,0.8,1.7,1.2,2.9,1.2C633.9,49.7,634.6,49.5,635.2,49.2z"/>
	<path class="st0" d="M647.9,38.4c0.7-0.4,1.5-0.6,2.5-0.6v3h-0.7c-1.1,0-2,0.3-2.6,0.9c-0.6,0.6-0.9,1.6-0.9,3V52h-2.9V38h2.9v2
		C646.6,39.3,647.2,38.8,647.9,38.4z"/>
	<path class="st0" d="M655.1,51.6c-0.9-0.4-1.6-0.9-2.1-1.6s-0.8-1.5-0.8-2.3h3c0.1,0.6,0.3,1.1,0.9,1.5c0.5,0.4,1.2,0.6,1.9,0.6
		c0.8,0,1.4-0.2,1.9-0.5c0.4-0.3,0.7-0.7,0.7-1.2c0-0.5-0.2-0.9-0.7-1.2s-1.3-0.5-2.4-0.8c-1.1-0.3-1.9-0.6-2.6-0.8
		c-0.7-0.3-1.2-0.7-1.7-1.2s-0.7-1.3-0.7-2.2c0-0.7,0.2-1.4,0.7-2c0.4-0.6,1.1-1.1,1.9-1.5c0.8-0.4,1.8-0.5,2.8-0.5
		c1.6,0,2.9,0.4,3.8,1.2c1,0.8,1.5,1.9,1.6,3.3h-2.9c-0.1-0.6-0.3-1.1-0.8-1.5c-0.5-0.4-1.1-0.6-1.9-0.6c-0.8,0-1.3,0.1-1.8,0.4
		c-0.4,0.3-0.6,0.7-0.6,1.1c0,0.4,0.1,0.7,0.4,0.9c0.3,0.3,0.6,0.5,1,0.6c0.4,0.1,1,0.3,1.7,0.5c1,0.3,1.8,0.5,2.5,0.8
		c0.7,0.3,1.2,0.7,1.7,1.2c0.5,0.5,0.7,1.3,0.7,2.2c0,0.8-0.2,1.5-0.7,2.1c-0.4,0.6-1.1,1.1-1.9,1.5s-1.7,0.5-2.8,0.5
		C657,52.2,656,52,655.1,51.6z"/>
	<path class="st0" d="M696.2,34.4L690.9,52h-3.3l-3.7-13.4L680,52l-3.2,0l-5-17.7h3.1l3.7,14.4l4-14.4h3.2l3.7,14.3l3.7-14.3H696.2z
		"/>
	<path class="st0" d="M711.3,46.1h-10.7c0.1,1.1,0.5,2,1.2,2.7c0.7,0.7,1.7,1,2.7,1c1.6,0,2.7-0.7,3.3-2h3.1
		c-0.4,1.3-1.2,2.3-2.3,3.2c-1.1,0.8-2.5,1.2-4.1,1.2c-1.3,0-2.5-0.3-3.6-0.9c-1.1-0.6-1.9-1.4-2.5-2.5c-0.6-1.1-0.9-2.4-0.9-3.8
		c0-1.4,0.3-2.7,0.9-3.8s1.4-1.9,2.5-2.5c1.1-0.6,2.3-0.9,3.6-0.9c1.3,0,2.5,0.3,3.5,0.9c1,0.6,1.8,1.4,2.4,2.4s0.9,2.2,0.9,3.6
		C711.4,45.2,711.3,45.7,711.3,46.1z M708.3,43.8c0-1.1-0.4-1.9-1.1-2.6c-0.7-0.6-1.7-1-2.8-1c-1,0-1.9,0.3-2.6,1s-1.1,1.5-1.3,2.6
		H708.3z"/>
	<path class="st0" d="M714.1,41.2c0.6-1.1,1.4-1.9,2.4-2.5c1-0.6,2.1-0.9,3.3-0.9c1.1,0,2.1,0.2,2.9,0.6s1.5,1,2,1.6v-2h2.9v14h-2.9
		v-2.1c-0.5,0.7-1.2,1.2-2,1.7s-1.8,0.7-2.9,0.7c-1.2,0-2.3-0.3-3.3-0.9c-1-0.6-1.8-1.5-2.4-2.6c-0.6-1.1-0.9-2.4-0.9-3.8
		C713.2,43.5,713.5,42.3,714.1,41.2z M724.1,42.5c-0.4-0.7-0.9-1.3-1.6-1.6c-0.6-0.4-1.3-0.6-2.1-0.6c-0.7,0-1.4,0.2-2.1,0.5
		c-0.6,0.4-1.2,0.9-1.6,1.6c-0.4,0.7-0.6,1.5-0.6,2.5c0,1,0.2,1.8,0.6,2.5c0.4,0.7,0.9,1.3,1.6,1.7c0.7,0.4,1.3,0.6,2.1,0.6
		c0.7,0,1.4-0.2,2.1-0.6c0.6-0.4,1.2-0.9,1.6-1.6c0.4-0.7,0.6-1.6,0.6-2.5C724.7,44,724.5,43.2,724.1,42.5z"/>
	<path class="st0" d="M734.3,33.2V52h-2.9V33.2H734.3z"/>
	<path class="st0" d="M741.5,40.4v7.7c0,0.5,0.1,0.9,0.4,1.1s0.7,0.3,1.3,0.3h1.8V52h-2.3c-1.3,0-2.3-0.3-3-0.9s-1-1.6-1-3v-7.7
		h-1.7V38h1.7v-3.5h2.9V38h3.4v2.4H741.5z"/>
	<path class="st0" d="M757.7,38.5c0.8,0.5,1.5,1.1,2,2c0.5,0.9,0.7,2,0.7,3.2V52h-2.9v-7.8c0-1.3-0.3-2.2-0.9-2.9
		c-0.6-0.7-1.5-1-2.6-1s-1.9,0.3-2.6,1c-0.6,0.7-1,1.6-1,2.9V52h-2.9V33.2h2.9v6.4c0.5-0.6,1.1-1,1.9-1.4c0.8-0.3,1.6-0.5,2.5-0.5
		C755.9,37.8,756.8,38,757.7,38.5z"/>
</g>
<g>
	<path class="st0" d="M1167.7,20.6c-1.4-0.8-2.5-1.8-3.3-3.2c-0.8-1.4-1.2-2.9-1.2-4.7c0-1.7,0.4-3.3,1.2-4.6
		c0.8-1.4,1.9-2.4,3.3-3.2c1.4-0.8,2.9-1.2,4.5-1.2c1.7,0,3.2,0.4,4.6,1.2c1.4,0.8,2.5,1.8,3.3,3.2s1.2,2.9,1.2,4.6
		c0,1.7-0.4,3.3-1.2,4.7c-0.8,1.4-1.9,2.5-3.3,3.2c-1.4,0.8-2.9,1.2-4.6,1.2C1170.6,21.7,1169.1,21.3,1167.7,20.6z M1175.4,18.4
		c0.9-0.5,1.6-1.3,2.1-2.3s0.8-2.1,0.8-3.4s-0.3-2.4-0.8-3.4c-0.5-1-1.2-1.7-2.1-2.3c-0.9-0.5-2-0.8-3.1-0.8s-2.2,0.3-3.1,0.8
		c-0.9,0.5-1.6,1.3-2.1,2.3c-0.5,1-0.8,2.1-0.8,3.4s0.3,2.4,0.8,3.4c0.5,1,1.2,1.8,2.1,2.3c0.9,0.5,2,0.8,3.1,0.8
		S1174.5,18.9,1175.4,18.4z"/>
	<path class="st0" d="M1194.1,8c0.9,0.5,1.6,1.1,2,2c0.5,0.9,0.7,2,0.7,3.2v8.3h-2.9v-7.8c0-1.3-0.3-2.2-0.9-2.9
		c-0.6-0.7-1.5-1-2.6-1s-1.9,0.3-2.6,1c-0.6,0.7-1,1.6-1,2.9v7.8h-2.9v-14h2.9v1.6c0.5-0.6,1.1-1,1.8-1.3c0.7-0.3,1.5-0.5,2.3-0.5
		C1192.3,7.3,1193.3,7.6,1194.1,8z"/>
	<path class="st0" d="M1213.3,15.6h-10.7c0.1,1.1,0.5,2,1.2,2.7c0.7,0.7,1.7,1,2.7,1c1.6,0,2.7-0.7,3.3-2h3.1
		c-0.4,1.3-1.2,2.3-2.3,3.2c-1.1,0.8-2.5,1.2-4.1,1.2c-1.3,0-2.5-0.3-3.6-0.9c-1.1-0.6-1.9-1.4-2.5-2.5c-0.6-1.1-0.9-2.4-0.9-3.8
		c0-1.4,0.3-2.7,0.9-3.8s1.4-1.9,2.5-2.5c1.1-0.6,2.3-0.9,3.6-0.9c1.3,0,2.5,0.3,3.5,0.9c1,0.6,1.8,1.4,2.4,2.4s0.9,2.2,0.9,3.6
		C1213.4,14.7,1213.4,15.2,1213.3,15.6z M1210.4,13.3c0-1.1-0.4-1.9-1.1-2.6c-0.7-0.6-1.7-1-2.8-1c-1,0-1.9,0.3-2.6,1
		s-1.1,1.5-1.3,2.6H1210.4z"/>
	<path class="st0" d="M1225.5,21.1c-0.9-0.4-1.7-1-2.2-1.8s-0.8-1.7-0.8-2.7h3.1c0.1,0.8,0.4,1.4,0.9,1.9c0.5,0.5,1.3,0.7,2.2,0.7
		c1,0,1.8-0.2,2.3-0.7s0.8-1.1,0.8-1.9c0-0.6-0.2-1.1-0.5-1.4c-0.3-0.4-0.8-0.7-1.3-0.9c-0.5-0.2-1.2-0.4-2.1-0.7
		c-1.2-0.3-2.1-0.6-2.8-0.9s-1.3-0.8-1.8-1.5s-0.8-1.5-0.8-2.6c0-1,0.3-1.9,0.8-2.7s1.2-1.3,2.1-1.8s2-0.6,3.2-0.6
		c1.7,0,3.1,0.4,4.2,1.3c1.1,0.9,1.7,2,1.8,3.5h-3.2c-0.1-0.6-0.4-1.2-0.9-1.7s-1.3-0.7-2.2-0.7c-0.8,0-1.5,0.2-2,0.6
		c-0.5,0.4-0.8,1-0.8,1.8c0,0.5,0.2,1,0.5,1.3c0.3,0.3,0.7,0.6,1.3,0.8s1.2,0.4,2.1,0.7c1.2,0.3,2.1,0.6,2.9,1
		c0.7,0.3,1.4,0.8,1.9,1.5c0.5,0.7,0.8,1.6,0.8,2.7c0,0.9-0.2,1.7-0.7,2.5c-0.5,0.8-1.2,1.4-2.1,1.9c-0.9,0.5-2,0.7-3.3,0.7
		C1227.5,21.7,1226.4,21.5,1225.5,21.1z"/>
	<path class="st0" d="M1241.6,9.9v7.7c0,0.5,0.1,0.9,0.4,1.1s0.7,0.3,1.3,0.3h1.8v2.4h-2.3c-1.3,0-2.3-0.3-3-0.9s-1-1.6-1-3V9.9
		h-1.7V7.6h1.7V4.1h2.9v3.5h3.4v2.4H1241.6z"/>
	<path class="st0" d="M1250.1,20.9c-1.1-0.6-1.9-1.4-2.5-2.5s-0.9-2.4-0.9-3.8c0-1.4,0.3-2.7,0.9-3.8c0.6-1.1,1.5-1.9,2.6-2.5
		c1.1-0.6,2.3-0.9,3.6-0.9s2.5,0.3,3.6,0.9c1.1,0.6,1.9,1.4,2.6,2.5c0.6,1.1,0.9,2.4,0.9,3.8c0,1.4-0.3,2.7-1,3.8
		c-0.6,1.1-1.5,2-2.6,2.6c-1.1,0.6-2.3,0.9-3.7,0.9C1252.4,21.8,1251.2,21.5,1250.1,20.9z M1255.8,18.7c0.7-0.4,1.2-0.9,1.6-1.6
		s0.6-1.6,0.6-2.6c0-1-0.2-1.9-0.6-2.6c-0.4-0.7-0.9-1.2-1.5-1.6s-1.3-0.5-2.1-0.5c-0.7,0-1.4,0.2-2.1,0.5s-1.1,0.9-1.5,1.6
		c-0.4,0.7-0.6,1.6-0.6,2.6c0,1.5,0.4,2.7,1.2,3.5c0.8,0.8,1.7,1.2,2.9,1.2C1254.4,19.3,1255.1,19.1,1255.8,18.7z"/>
	<path class="st0" d="M1268.7,8c0.8-0.4,1.8-0.7,2.9-0.7c1.2,0,2.3,0.3,3.3,0.9c1,0.6,1.8,1.4,2.4,2.5c0.6,1.1,0.9,2.3,0.9,3.7
		c0,1.4-0.3,2.7-0.9,3.8c-0.6,1.1-1.4,2-2.4,2.6c-1,0.6-2.1,0.9-3.3,0.9c-1.1,0-2-0.2-2.8-0.6c-0.8-0.4-1.5-1-2-1.6v8.7h-2.9V7.6
		h2.9v2.1C1267.2,9,1267.9,8.4,1268.7,8z M1274.6,12c-0.4-0.7-0.9-1.2-1.6-1.6c-0.7-0.4-1.3-0.5-2.1-0.5c-0.7,0-1.4,0.2-2.1,0.6
		c-0.7,0.4-1.2,0.9-1.6,1.6c-0.4,0.7-0.6,1.5-0.6,2.5c0,1,0.2,1.8,0.6,2.5c0.4,0.7,0.9,1.3,1.6,1.6c0.7,0.4,1.3,0.6,2.1,0.6
		c0.7,0,1.4-0.2,2.1-0.6s1.2-0.9,1.6-1.7c0.4-0.7,0.6-1.6,0.6-2.5C1275.2,13.5,1275,12.7,1274.6,12z"/>
	<path class="st0" d="M1173.5,51.6c-0.9-0.4-1.7-1-2.2-1.8c-0.5-0.8-0.8-1.7-0.8-2.7h3.1c0.1,0.8,0.4,1.4,0.9,1.9
		c0.5,0.5,1.3,0.7,2.2,0.7c1,0,1.8-0.2,2.3-0.7s0.8-1.1,0.8-1.9c0-0.6-0.2-1.1-0.5-1.4c-0.3-0.4-0.8-0.7-1.3-0.9
		c-0.5-0.2-1.2-0.4-2.1-0.7c-1.2-0.3-2.1-0.6-2.8-0.9c-0.7-0.3-1.3-0.8-1.8-1.5s-0.8-1.5-0.8-2.6c0-1,0.3-1.9,0.8-2.7
		s1.2-1.3,2.1-1.8s2-0.6,3.2-0.6c1.7,0,3.1,0.4,4.2,1.3c1.1,0.9,1.7,2,1.8,3.5h-3.2c-0.1-0.6-0.4-1.2-0.9-1.7s-1.3-0.7-2.2-0.7
		c-0.8,0-1.5,0.2-2,0.6c-0.5,0.4-0.8,1-0.8,1.8c0,0.5,0.2,1,0.5,1.3c0.3,0.3,0.7,0.6,1.3,0.8s1.2,0.4,2.1,0.7c1.2,0.3,2.1,0.6,2.9,1
		c0.7,0.3,1.4,0.8,1.9,1.5s0.8,1.6,0.8,2.7c0,0.9-0.2,1.7-0.7,2.5c-0.5,0.8-1.2,1.4-2.1,1.9s-2,0.7-3.3,0.7
		C1175.5,52.2,1174.4,52,1173.5,51.6z"/>
	<path class="st0" d="M1188.7,51.3c-1.1-0.6-1.9-1.4-2.5-2.5s-0.9-2.4-0.9-3.8c0-1.4,0.3-2.7,0.9-3.8c0.6-1.1,1.5-1.9,2.6-2.5
		c1.1-0.6,2.3-0.9,3.6-0.9s2.5,0.3,3.6,0.9c1.1,0.6,1.9,1.4,2.6,2.5c0.6,1.1,0.9,2.4,0.9,3.8c0,1.4-0.3,2.7-1,3.8
		c-0.6,1.1-1.5,2-2.6,2.6c-1.1,0.6-2.3,0.9-3.7,0.9C1190.9,52.2,1189.7,51.9,1188.7,51.3z M1194.4,49.2c0.7-0.4,1.2-0.9,1.6-1.6
		s0.6-1.6,0.6-2.6c0-1-0.2-1.9-0.6-2.6c-0.4-0.7-0.9-1.2-1.5-1.6s-1.3-0.5-2.1-0.5c-0.7,0-1.4,0.2-2.1,0.5s-1.1,0.9-1.5,1.6
		c-0.4,0.7-0.6,1.6-0.6,2.6c0,1.5,0.4,2.7,1.2,3.5c0.8,0.8,1.7,1.2,2.9,1.2C1193,49.7,1193.7,49.5,1194.4,49.2z"/>
	<path class="st0" d="M1205.3,33.2V52h-2.9V33.2H1205.3z"/>
	<path class="st0" d="M1221.8,38v14h-2.9v-1.7c-0.5,0.6-1.1,1-1.8,1.4s-1.5,0.5-2.3,0.5c-1.1,0-2.1-0.2-3-0.7s-1.6-1.1-2.1-2
		c-0.5-0.9-0.7-2-0.7-3.2V38h2.9v7.8c0,1.3,0.3,2.2,0.9,2.9c0.6,0.7,1.5,1,2.6,1s1.9-0.3,2.6-1c0.6-0.7,1-1.6,1-2.9V38H1221.8z"/>
	<path class="st0" d="M1228.9,40.4v7.7c0,0.5,0.1,0.9,0.4,1.1s0.7,0.3,1.3,0.3h1.8V52h-2.3c-1.3,0-2.3-0.3-3-0.9s-1-1.6-1-3v-7.7
		h-1.7V38h1.7v-3.5h2.9V38h3.4v2.4H1228.9z"/>
	<path class="st0" d="M1235.2,35.6c-0.4-0.4-0.5-0.8-0.5-1.3c0-0.5,0.2-1,0.5-1.3s0.8-0.5,1.3-0.5c0.5,0,0.9,0.2,1.3,0.5
		s0.5,0.8,0.5,1.3c0,0.5-0.2,1-0.5,1.3s-0.8,0.5-1.3,0.5C1236,36.2,1235.5,36,1235.2,35.6z M1237.9,38v14h-2.9V38H1237.9z"/>
	<path class="st0" d="M1244.2,51.3c-1.1-0.6-1.9-1.4-2.5-2.5s-0.9-2.4-0.9-3.8c0-1.4,0.3-2.7,0.9-3.8c0.6-1.1,1.5-1.9,2.6-2.5
		c1.1-0.6,2.3-0.9,3.6-0.9s2.5,0.3,3.6,0.9c1.1,0.6,1.9,1.4,2.6,2.5c0.6,1.1,0.9,2.4,0.9,3.8c0,1.4-0.3,2.7-1,3.8
		c-0.6,1.1-1.5,2-2.6,2.6c-1.1,0.6-2.3,0.9-3.7,0.9C1246.5,52.2,1245.3,51.9,1244.2,51.3z M1249.9,49.2c0.7-0.4,1.2-0.9,1.6-1.6
		s0.6-1.6,0.6-2.6c0-1-0.2-1.9-0.6-2.6c-0.4-0.7-0.9-1.2-1.5-1.6c-0.6-0.4-1.3-0.5-2.1-0.5c-0.7,0-1.4,0.2-2.1,0.5s-1.1,0.9-1.5,1.6
		c-0.4,0.7-0.6,1.6-0.6,2.6c0,1.5,0.4,2.7,1.2,3.5c0.8,0.8,1.7,1.2,2.9,1.2C1248.5,49.7,1249.2,49.5,1249.9,49.2z"/>
	<path class="st0" d="M1267.9,38.5c0.9,0.5,1.6,1.1,2,2c0.5,0.9,0.7,2,0.7,3.2V52h-2.9v-7.8c0-1.3-0.3-2.2-0.9-2.9
		c-0.6-0.7-1.5-1-2.6-1s-1.9,0.3-2.6,1c-0.6,0.7-1,1.6-1,2.9V52h-2.9V38h2.9v1.6c0.5-0.6,1.1-1,1.8-1.3c0.7-0.3,1.5-0.5,2.3-0.5
		C1266.1,37.8,1267.1,38,1267.9,38.5z"/>
</g>
</svg>
