<?xml version="1.0" encoding="utf-8"?>
<!-- Generator: Adobe Illustrator 26.0.1, SVG Export Plug-In . SVG Version: 6.00 Build 0)  -->
<svg version="1.1" id="Layer_1" xmlns="http://www.w3.org/2000/svg" xmlns:xlink="http://www.w3.org/1999/xlink" x="0px" y="0px"
	 viewBox="0 0 35.8 30" style="enable-background:new 0 0 35.8 30;" xml:space="preserve">
<g>
	<path d="M35.8,1.5c-0.1,0.3-0.2,0.6-0.3,0.9c-0.2,0.6-0.4,1.2-0.7,1.7c-0.1,0.3-0.2,0.7-0.4,1c-0.2,0.5-0.4,1-0.6,1.5
		c-0.2,0.4-0.3,0.8-0.5,1.3c-0.2,0.5-0.4,1-0.6,1.5c-0.2,0.6-0.4,1.1-0.7,1.7c-0.2,0.4-0.3,0.9-0.5,1.3c0,0,0,0.1-0.1,0.1
		C30.9,11,30,9.7,29.2,8.3c-0.1,0-0.2,0.1-0.4,0.2c-0.4,0.2-0.7,0.4-1.1,0.6c-0.4,0.2-0.7,0.4-1.1,0.7c-0.3,0.2-0.7,0.4-1,0.6
		c-0.3,0.2-0.6,0.3-0.9,0.5c-0.3,0.2-0.6,0.4-1,0.6c-0.4,0.2-0.7,0.4-1.1,0.7c-0.3,0.2-0.6,0.4-1,0.6c-0.4,0.2-0.7,0.4-1.1,0.7
		c-0.3,0.2-0.6,0.4-1,0.6c-0.3,0.2-0.6,0.4-0.9,0.5c-0.3,0.2-0.6,0.4-1,0.6c-0.1,0.1-0.3,0.2-0.4,0.2c-0.1,0.1-0.1,0.1-0.2,0
		c-0.1-0.2-0.3-0.3-0.4-0.4c-0.3-0.3-0.6-0.6-0.8-0.9c-0.2-0.3-0.5-0.5-0.8-0.8c-0.2-0.3-0.5-0.5-0.7-0.8c-0.2-0.2-0.4-0.4-0.6-0.6
		c0-0.1-0.1-0.1-0.1,0c-0.6,0.3-1.2,0.6-1.7,0.9c-0.3,0.1-0.6,0.3-0.9,0.4c-0.6,0.3-1.2,0.6-1.8,0.9c-0.3,0.2-0.7,0.4-1,0.5
		c-0.5,0.3-1.1,0.6-1.6,0.9c-0.4,0.2-0.9,0.5-1.3,0.7c-0.6,0.3-1.1,0.6-1.6,0.9c-0.4,0.2-0.8,0.4-1.2,0.6c-0.1,0-0.1,0.1-0.2,0.1
		c-0.8-1.5-1.6-2.9-2.3-4.4c0.2-0.1,0.3-0.2,0.5-0.3c0.3-0.2,0.7-0.4,1-0.5c0.3-0.1,0.5-0.3,0.8-0.4c0.6-0.3,1.1-0.6,1.7-0.9
		c0.4-0.2,0.8-0.4,1.2-0.6c0.6-0.3,1.1-0.6,1.7-0.9C7.2,9.6,7.6,9.4,8,9.2c0.6-0.3,1.1-0.6,1.7-0.9c0.4-0.2,0.8-0.4,1.2-0.6
		c0.6-0.3,1.1-0.6,1.7-0.9c0.4-0.2,0.8-0.4,1.2-0.6c0.3-0.2,0.6-0.3,0.9-0.5c0.2,0.2,0.5,0.5,0.7,0.7c0.1,0.1,0.2,0.2,0.3,0.3
		c0.4,0.4,0.7,0.7,1.1,1.1C17,8,17.3,8.2,17.5,8.5c0.2,0.2,0.4,0.4,0.6,0.6c2.8-1.7,5.7-3.4,8.5-5c-0.1-0.1-0.1-0.2-0.2-0.3
		c0-0.1-0.1-0.1-0.1-0.2c0,0,0-0.1,0-0.1c-0.2-0.1-0.2-0.2-0.3-0.4c-0.3-0.5-0.6-1-0.9-1.5c-0.3-0.4-0.5-0.9-0.8-1.3
		c-0.1-0.1-0.1-0.2-0.2-0.3c0.1,0,0.3,0,0.4,0.1c0.2,0,0.3,0,0.5,0.1c0.2,0,0.5,0.1,0.7,0.1c0.2,0,0.4,0,0.6,0.1
		c0.2,0,0.4,0.1,0.6,0.1c0.1,0,0.3,0,0.4,0.1c0.2,0,0.4,0.1,0.6,0.1c0.2,0,0.3,0,0.4,0.1c0.2,0,0.4,0.1,0.6,0.1c0.2,0,0.3,0,0.5,0.1
		c0.2,0,0.4,0.1,0.6,0.1c0.2,0,0.4,0,0.6,0.1c0.2,0,0.5,0,0.7,0.1C31.8,1,32,1,32.2,1c0.2,0,0.4,0.1,0.6,0.1c0.1,0,0.3,0,0.4,0.1
		c0.2,0,0.4,0.1,0.6,0.1c0.2,0,0.3,0,0.5,0.1c0.2,0,0.4,0.1,0.7,0.1c0.1,0,0.3,0,0.4,0.1C35.6,1.4,35.7,1.4,35.8,1.5
		C35.8,1.4,35.8,1.4,35.8,1.5z"/>
	<path d="M23.9,30c0-5.5,0-11,0-16.5c1.6-1,3.3-1.9,5-2.9c0,6.5,0,12.9,0,19.4C27.2,30,25.5,30,23.9,30z"/>
	<path d="M10.3,30c0-4.8,0-9.6,0-14.4c1-0.5,2.1-1.1,3.1-1.6c0.2,0.2,0.4,0.4,0.6,0.6c0.1,0.1,0.1,0.1,0.2,0.2
		c0.3,0.4,0.7,0.7,1,1.1c0,0,0,0.1,0,0.1c0,0.6,0,1.2,0,1.8c0,4.1,0,8.2,0,12.3C13.6,30,11.9,30,10.3,30z"/>
	<path d="M17.1,30c0-4.1,0-8.1,0-12.2c0-0.2,0.1-0.3,0.2-0.3c0.6-0.4,1.3-0.8,1.9-1.1c0.5-0.3,1-0.6,1.5-0.9
		c0.4-0.3,0.9-0.5,1.3-0.8c0,0,0,0,0.1,0c0,5.1,0,10.2,0,15.4C20.4,30,18.7,30,17.1,30z"/>
	<path d="M3.4,30c0-3.6,0-7.2,0-10.8c0.4-0.2,0.8-0.4,1.1-0.6c0.6-0.3,1.1-0.6,1.7-0.9c0.4-0.2,0.8-0.4,1.1-0.6
		c0.3-0.2,0.6-0.3,1-0.5c0,4.5,0,9,0,13.4C6.8,30,5.1,30,3.4,30z"/>
</g>
</svg>
